<svg width="222" height="44" viewBox="0 0 222 44" fill="none" xmlns="http://www.w3.org/2000/svg">
<path d="M3.832 0.799999C1.4 0.799999 0.248 1.952 0.248 4.32V40.48C0.248 42.848 1.4 44 3.832 44H23.032C33.208 44 37.496 39.008 37.496 32.096C37.496 27.104 35.192 23.904 31.096 22.24C35.128 20.64 37.304 17.632 37.304 12.64C37.304 5.6 33.016 0.799999 22.84 0.799999H3.832ZM7.672 25.312H23.224C27.64 25.312 29.88 27.232 29.88 30.88C29.88 34.4 27.768 36.512 23.224 36.512H8.504C7.992 36.512 7.672 36.32 7.672 35.808V25.312ZM7.672 8.992C7.672 8.48 7.992 8.224 8.504 8.224H23.096C27.704 8.224 29.688 10.464 29.688 13.856C29.688 17.376 27.512 19.04 23.032 19.04H7.672V8.992ZM42.856 0.799999V8.352H69.032C71.4 8.352 72.104 9.696 72.104 11.04C72.104 11.936 71.784 12.832 71.016 13.856L48.744 44H58.216L76.776 18.784C79.272 15.328 80.36 12.512 80.36 9.632C80.36 5.408 77.992 0.799999 69.928 0.799999H42.856ZM100.8 0.799999C90.6235 0.799999 86.3355 5.6 86.3355 12.64C86.3355 17.568 88.5115 20.704 92.4795 22.304C88.4475 23.968 86.2075 27.104 86.2075 32.096C86.2075 39.008 90.4315 44 100.608 44H111.168C121.344 44 125.632 39.008 125.632 32.096C125.632 27.104 123.328 23.968 119.296 22.304C123.264 20.704 125.44 17.568 125.44 12.64C125.44 5.6 121.152 0.799999 110.976 0.799999H100.8ZM100.416 36.512C95.9355 36.512 93.7595 34.464 93.7595 30.944C93.7595 27.424 96.0635 25.568 100.416 25.568H111.36C115.776 25.568 118.016 27.424 118.016 30.944C118.016 34.464 115.904 36.512 111.36 36.512H100.416ZM100.672 19.04C96.1915 19.04 93.9515 17.376 93.9515 13.792C93.9515 10.464 95.9995 8.224 100.608 8.224H111.232C115.84 8.224 117.824 10.464 117.824 13.792C117.824 17.376 115.648 19.04 111.168 19.04H100.672Z" fill="white"/>
<path d="M132.133 0.799999L149.669 21.472L130.341 44H139.685L154.405 26.848L168.741 44H177.957L159.333 22.048L177.829 0.799999H168.485L154.597 16.736L141.349 0.799999H132.133Z" fill="#3EB1FF"/>
<path d="M184.373 0.799999V44H191.925V25.952H214.005V44H221.621V0.799999H214.005V18.4H191.925V0.799999H184.373Z" fill="#0761E2"/>
</svg>
