<svg width="348" height="68" viewBox="0 0 348 68" fill="none" xmlns="http://www.w3.org/2000/svg">
<g clip-path="url(#clip0_9_7481)">
<path d="M35.5121 0C51.5154 0 58.2437 7.55556 58.2437 18.637C58.2437 26.4917 54.8166 31.2296 48.4814 33.7481C54.9267 36.3611 58.5424 41.3981 58.5424 49.2685C58.5424 60.1454 51.7983 68 35.8108 68H5.62786C1.80783 68 0 66.1898 0 62.4593V5.54074C0 1.81019 1.80783 0 5.62786 0H35.5121ZM11.6645 28.7111H35.8108C42.8535 28.7111 46.2805 26.0981 46.2805 20.5574C46.2805 15.0167 43.1679 11.6954 35.9209 11.6954H12.9692C12.1675 11.6954 11.6645 12.1046 11.6645 12.9074V28.7269V28.7111ZM11.6645 55.1083C11.6645 55.9111 12.1675 56.2102 12.9692 56.2102H36.1095C43.2465 56.2102 46.5792 52.8889 46.5792 47.3481C46.5792 41.8074 43.0579 38.5806 36.1095 38.5806H11.6645V55.1083Z" fill="#F4F4F4"/>
<path d="M109.555 0C122.225 0 125.951 7.25648 125.951 13.8991C125.951 18.4324 124.237 22.8713 120.323 28.3019L91.1462 67.9843H76.2591L111.268 20.5417C112.479 18.9361 112.982 17.5194 112.982 16.1028C112.982 13.9935 111.881 11.8685 108.156 11.8685H67.0156V0H109.57H109.555Z" fill="#F4F4F4"/>
<path d="M174.055 0C190.043 0 196.787 7.55556 196.787 18.637C196.787 26.3972 193.36 31.3241 187.134 33.8426C193.47 36.4556 197.085 41.3982 197.085 49.2528C197.085 60.1296 190.341 67.9843 174.354 67.9843H157.753C141.75 67.9843 135.116 60.1296 135.116 49.2528C135.116 41.3982 138.637 36.4556 144.972 33.8426C138.732 31.3241 135.32 26.3815 135.32 18.637C135.32 7.55556 142.064 0 158.052 0H174.055ZM174.652 56.2102C181.789 56.2102 185.122 52.9833 185.122 47.4426C185.122 41.9019 181.601 38.9741 174.652 38.9741H157.454C150.616 38.9741 146.985 41.9019 146.985 47.4426C146.985 52.9833 150.412 56.2102 157.454 56.2102H174.652ZM174.354 28.7111C181.396 28.7111 184.823 26.0981 184.823 20.4472C184.823 15.2056 181.711 11.6796 174.464 11.6796H157.769C150.522 11.6796 147.299 15.2056 147.299 20.4472C147.299 26.0824 150.82 28.7111 157.863 28.7111H174.369H174.354Z" fill="#F4F4F4"/>
<path d="M221.845 0L242.674 25.0907L264.494 0H279.177L250.11 33.4491L279.381 68H264.903L242.375 41.0046L219.235 68H204.552L234.94 32.5361L207.351 0H221.829H221.845Z" fill="#3EB1FF"/>
<path d="M301.326 0V27.7037H336.037V0H348.016V68H336.037V39.588H301.326V68H289.458V0H301.326Z" fill="#0761E2"/>
</g>
<defs>
<clipPath id="clip0_9_7481">
<rect width="348" height="68" fill="white"/>
</clipPath>
</defs>
</svg>
