<svg width="257" height="389" viewBox="0 0 257 389" fill="none" xmlns="http://www.w3.org/2000/svg">
<g filter="url(#filter0_d_15_46)">
<rect x="225.711" y="198.342" width="22.038" height="4.97631" fill="#4EF07B"/>
</g>
<rect x="238.388" y="156.247" width="10.3212" height="16.8924" stroke="#F4F4F4" stroke-width="2"/>
<rect x="238.388" y="132.426" width="10.3212" height="16.8924" stroke="#F4F4F4" stroke-width="2"/>
<rect x="238.388" y="108.605" width="10.3212" height="16.8924" stroke="#F4F4F4" stroke-width="2"/>
<rect x="238.388" y="84.7838" width="10.3212" height="16.8924" stroke="#F4F4F4" stroke-width="2"/>
<rect x="238.388" y="60.9629" width="10.3212" height="16.8924" stroke="#F4F4F4" stroke-width="2"/>
<rect x="238.388" y="37.142" width="10.3212" height="16.8924" stroke="#F4F4F4" stroke-width="2"/>
<rect x="7.57129" y="156.247" width="10.3212" height="16.8924" stroke="#F4F4F4" stroke-width="2"/>
<rect x="7.57129" y="132.426" width="10.3212" height="16.8924" stroke="#F4F4F4" stroke-width="2"/>
<rect x="7.57129" y="108.605" width="10.3212" height="16.8924" stroke="#F4F4F4" stroke-width="2"/>
<rect x="7.57129" y="84.7838" width="10.3212" height="16.8924" stroke="#F4F4F4" stroke-width="2"/>
<rect x="7.57129" y="60.9629" width="10.3212" height="16.8924" stroke="#F4F4F4" stroke-width="2"/>
<rect x="7.57129" y="37.142" width="10.3212" height="16.8924" stroke="#F4F4F4" stroke-width="2"/>
<rect x="40.4277" y="175.96" width="175.425" height="13.6068" stroke="#F4F4F4" stroke-width="2"/>
<rect x="28.928" y="14.1426" width="197.603" height="155.711" stroke="#F4F4F4" stroke-width="2"/>
<rect x="1" y="1" width="254.28" height="386.527" stroke="#F4F4F4" stroke-width="2"/>
<mask id="path-17-inside-1_15_46" fill="white">
<rect x="6.57129" y="196.317" width="27.928" height="18.071" rx="1"/>
</mask>
<rect x="6.57129" y="196.317" width="27.928" height="18.071" rx="1" stroke="#F4F4F4" stroke-width="4" mask="url(#path-17-inside-1_15_46)"/>
<mask id="path-18-inside-2_15_46" fill="white">
<rect x="67.3555" y="237.388" width="27.928" height="18.071" rx="1"/>
</mask>
<rect x="67.3555" y="237.388" width="27.928" height="18.071" rx="1" stroke="#F4F4F4" stroke-width="4" mask="url(#path-18-inside-2_15_46)"/>
<mask id="path-19-inside-3_15_46" fill="white">
<rect x="67.3555" y="196.317" width="27.928" height="18.071" rx="1"/>
</mask>
<rect x="67.3555" y="196.317" width="27.928" height="18.071" rx="1" stroke="#F4F4F4" stroke-width="4" mask="url(#path-19-inside-3_15_46)"/>
<path d="M98.748 197.317L124.676 197.317L124.676 213.388H98.748L98.748 197.317Z" stroke="#F4F4F4" stroke-width="2"/>
<mask id="path-21-inside-4_15_46" fill="white">
<rect x="128.14" y="216.852" width="27.928" height="18.071" rx="1"/>
</mask>
<rect x="128.14" y="216.852" width="27.928" height="18.071" rx="1" stroke="#F4F4F4" stroke-width="4" mask="url(#path-21-inside-4_15_46)"/>
<mask id="path-22-inside-5_15_46" fill="white">
<rect x="97.748" y="216.852" width="27.928" height="18.071" rx="1"/>
</mask>
<rect x="97.748" y="216.852" width="27.928" height="18.071" rx="1" stroke="#F4F4F4" stroke-width="4" mask="url(#path-22-inside-5_15_46)"/>
<mask id="path-23-inside-6_15_46" fill="white">
<rect x="36.9634" y="196.317" width="27.928" height="18.071" rx="1"/>
</mask>
<rect x="36.9634" y="196.317" width="27.928" height="18.071" rx="1" stroke="#F4F4F4" stroke-width="4" mask="url(#path-23-inside-6_15_46)"/>
<mask id="path-24-inside-7_15_46" fill="white">
<rect x="128.14" y="196.317" width="27.928" height="18.071" rx="1"/>
</mask>
<rect x="128.14" y="196.317" width="27.928" height="18.071" rx="1" stroke="#F4F4F4" stroke-width="4" mask="url(#path-24-inside-7_15_46)"/>
<mask id="path-25-inside-8_15_46" fill="white">
<rect x="6.57129" y="216.852" width="27.928" height="18.071" rx="1"/>
</mask>
<rect x="6.57129" y="216.852" width="27.928" height="18.071" rx="1" stroke="#F4F4F4" stroke-width="4" mask="url(#path-25-inside-8_15_46)"/>
<mask id="path-26-inside-9_15_46" fill="white">
<rect x="36.9634" y="216.852" width="27.928" height="18.071" rx="1"/>
</mask>
<rect x="36.9634" y="216.852" width="27.928" height="18.071" rx="1" stroke="#F4F4F4" stroke-width="4" mask="url(#path-26-inside-9_15_46)"/>
<mask id="path-27-inside-10_15_46" fill="white">
<rect x="67.3555" y="216.852" width="27.928" height="18.071" rx="1"/>
</mask>
<rect x="67.3555" y="216.852" width="27.928" height="18.071" rx="1" stroke="#F4F4F4" stroke-width="4" mask="url(#path-27-inside-10_15_46)"/>
<mask id="path-28-inside-11_15_46" fill="white">
<rect x="6.57129" y="237.388" width="27.928" height="18.071" rx="1"/>
</mask>
<rect x="6.57129" y="237.388" width="27.928" height="18.071" rx="1" stroke="#F4F4F4" stroke-width="4" mask="url(#path-28-inside-11_15_46)"/>
<mask id="path-29-inside-12_15_46" fill="white">
<rect x="36.9634" y="237.388" width="27.928" height="18.071" rx="1"/>
</mask>
<rect x="36.9634" y="237.388" width="27.928" height="18.071" rx="1" stroke="#F4F4F4" stroke-width="4" mask="url(#path-29-inside-12_15_46)"/>
<mask id="path-30-inside-13_15_46" fill="white">
<rect x="190.567" y="237.388" width="30.3922" height="19.7139" rx="1"/>
</mask>
<rect x="190.567" y="237.388" width="30.3922" height="19.7139" rx="1" stroke="#F4F4F4" stroke-width="4" mask="url(#path-30-inside-13_15_46)"/>
<mask id="path-31-inside-14_15_46" fill="white">
<rect x="220.959" y="237.388" width="30.3922" height="19.7139" rx="1"/>
</mask>
<rect x="220.959" y="237.388" width="30.3922" height="19.7139" rx="1" stroke="#F4F4F4" stroke-width="4" mask="url(#path-31-inside-14_15_46)"/>
<mask id="path-32-inside-15_15_46" fill="white">
<rect x="221.446" y="194.787" width="30.5688" height="19.9053" rx="1"/>
</mask>
<rect x="221.446" y="194.787" width="30.5688" height="19.9053" rx="1" stroke="#F4F4F4" stroke-width="4" mask="url(#path-32-inside-15_15_46)"/>
<defs>
<filter id="filter0_d_15_46" x="221.711" y="198.342" width="30.0381" height="12.9763" filterUnits="userSpaceOnUse" color-interpolation-filters="sRGB">
<feFlood flood-opacity="0" result="BackgroundImageFix"/>
<feColorMatrix in="SourceAlpha" type="matrix" values="0 0 0 0 0 0 0 0 0 0 0 0 0 0 0 0 0 0 127 0" result="hardAlpha"/>
<feOffset dy="4"/>
<feGaussianBlur stdDeviation="2"/>
<feComposite in2="hardAlpha" operator="out"/>
<feColorMatrix type="matrix" values="0 0 0 0 0 0 0 0 0 0 0 0 0 0 0 0 0 0 0.25 0"/>
<feBlend mode="normal" in2="BackgroundImageFix" result="effect1_dropShadow_15_46"/>
<feBlend mode="normal" in="SourceGraphic" in2="effect1_dropShadow_15_46" result="shape"/>
</filter>
</defs>
</svg>
