<svg width="1923" height="1087" viewBox="0 0 1923 1087" fill="none" xmlns="http://www.w3.org/2000/svg">
<path d="M2.00002 5C-8.65446 446.143 293.907 461.477 1832 1046C1862.67 1057.66 1890.34 1072.89 1922 1085" stroke="#3EB1FF" stroke-width="3"/>
<path d="M2.19164 5C-5.443 446.143 211.362 461.477 1313.51 1046C1335.49 1057.66 1355.31 1072.89 1378 1085" stroke="#3EB1FF" stroke-width="3"/>
<path d="M2.20682 1C-6.0326 442.143 227.947 457.477 1417.4 1042C1441.12 1053.66 1462.51 1068.89 1487 1081" stroke="#3EB1FF" stroke-width="3"/>
<path d="M2.22618 5C-6.78447 446.143 249.096 461.477 1549.89 1046C1575.82 1057.66 1599.22 1072.89 1626 1085" stroke="#3EB1FF" stroke-width="3"/>
<path d="M2.24652 5C-7.57421 446.143 271.311 461.477 1689.04 1046C1717.31 1057.66 1742.81 1072.89 1772 1085" stroke="#3EB1FF" stroke-width="3"/>
</svg>
