<svg width="223" height="169" viewBox="0 0 223 169" fill="none" xmlns="http://www.w3.org/2000/svg">
<path fill-rule="evenodd" clip-rule="evenodd" d="M219.836 1.35315H3.31172C2.46053 1.35315 1.77051 2.04317 1.77051 2.89436V165.463C1.77051 166.314 2.46053 167.004 3.31172 167.004H219.836C220.687 167.004 221.378 166.314 221.378 165.463V2.89436C221.378 2.04317 220.687 1.35315 219.836 1.35315ZM3.31172 0.353149C1.90825 0.353149 0.770508 1.49089 0.770508 2.89436V165.463C0.770508 166.866 1.90825 168.004 3.31172 168.004H219.836C221.24 168.004 222.378 166.866 222.378 165.463V2.89436C222.378 1.49089 221.24 0.353149 219.836 0.353149H3.31172Z" fill="#F4F4F4"/>
<path fill-rule="evenodd" clip-rule="evenodd" d="M109.475 134.668L109.475 21.3701L110.322 21.3701L110.322 134.668L109.475 134.668Z" fill="#F4F4F4"/>
<path fill-rule="evenodd" clip-rule="evenodd" d="M109.899 133.182L106.979 141.366H112.819L109.899 133.182ZM109.899 134.442L107.579 140.942H112.218L109.899 134.442Z" fill="#F4F4F4"/>
<path fill-rule="evenodd" clip-rule="evenodd" d="M10.5878 87.5232L9.21813 86.9082L9.3916 86.5219L10.7613 87.1368L10.5878 87.5232Z" fill="#F4F4F4"/>
<path fill-rule="evenodd" clip-rule="evenodd" d="M20.3291 70.6351L19.0478 69.8525L19.2686 69.4911L20.5499 70.2737L20.3291 70.6351Z" fill="#F4F4F4"/>
<path fill-rule="evenodd" clip-rule="evenodd" d="M63.7203 33.4784L63.0191 32.1508L63.3936 31.953L64.0948 33.2806L63.7203 33.4784Z" fill="#F4F4F4"/>
<path fill-rule="evenodd" clip-rule="evenodd" d="M81.3565 26.3501L80.9393 24.9078L81.3462 24.7902L81.7634 26.2324L81.3565 26.3501Z" fill="#F4F4F4"/>
<path fill-rule="evenodd" clip-rule="evenodd" d="M99.8901 23.1295L99.8394 21.6289L100.263 21.6146L100.313 23.1152L99.8901 23.1295Z" fill="#F4F4F4"/>
<path fill-rule="evenodd" clip-rule="evenodd" d="M118.886 22.8701L118.948 21.37L119.372 21.3877L119.309 22.8878L118.886 22.8701Z" fill="#F4F4F4"/>
<path fill-rule="evenodd" clip-rule="evenodd" d="M138.145 24.7557L137.748 26.2037L137.34 26.0918L137.737 24.6438L138.145 24.7557Z" fill="#F4F4F4"/>
<path fill-rule="evenodd" clip-rule="evenodd" d="M156.031 31.3043L155.402 32.6676L155.018 32.4901L155.647 31.1269L156.031 31.3043Z" fill="#F4F4F4"/>
<path fill-rule="evenodd" clip-rule="evenodd" d="M172.737 41.0126L171.82 42.2007L171.484 41.9418L172.402 40.7536L172.737 41.0126Z" fill="#F4F4F4"/>
<path fill-rule="evenodd" clip-rule="evenodd" d="M187.708 53.1268L186.627 54.1686L186.333 53.8636L187.414 52.8218L187.708 53.1268Z" fill="#F4F4F4"/>
<path fill-rule="evenodd" clip-rule="evenodd" d="M199.868 68.3045L198.592 69.0961L198.369 68.7362L199.645 67.9446L199.868 68.3045Z" fill="#F4F4F4"/>
<path fill-rule="evenodd" clip-rule="evenodd" d="M209.445 85.2865L208.092 85.9375L207.908 85.5558L209.261 84.9049L209.445 85.2865Z" fill="#F4F4F4"/>
<path fill-rule="evenodd" clip-rule="evenodd" d="M47.4041 43.1567L46.4733 41.9786L46.8057 41.7161L47.7364 42.8942L47.4041 43.1567Z" fill="#F4F4F4"/>
<path fill-rule="evenodd" clip-rule="evenodd" d="M32.6514 55.7238L31.5137 54.7442L31.79 54.4232L32.9278 55.4029L32.6514 55.7238Z" fill="#F4F4F4"/>
<path fill-rule="evenodd" clip-rule="evenodd" d="M15.9326 79.3478L13.9529 78.2674L14.1558 77.8956L16.1355 78.976L15.9326 79.3478Z" fill="#F4F4F4"/>
<path fill-rule="evenodd" clip-rule="evenodd" d="M40.1342 49.625L38.5687 48.0015L38.8735 47.7075L40.4391 49.331L40.1342 49.625Z" fill="#F4F4F4"/>
<path fill-rule="evenodd" clip-rule="evenodd" d="M205.008 76.4958L203.059 77.629L202.846 77.2628L204.796 76.1296L205.008 76.4958Z" fill="#F4F4F4"/>
<path fill-rule="evenodd" clip-rule="evenodd" d="M194.166 60.4724L192.376 61.8437L192.118 61.5074L193.909 60.1361L194.166 60.4724Z" fill="#F4F4F4"/>
<path fill-rule="evenodd" clip-rule="evenodd" d="M180.463 46.5797L179.064 48.3488L178.731 48.0861L180.13 46.317L180.463 46.5797Z" fill="#F4F4F4"/>
<path fill-rule="evenodd" clip-rule="evenodd" d="M164.497 35.8173L163.303 37.7307L162.944 37.5065L164.138 35.5931L164.497 35.8173Z" fill="#F4F4F4"/>
<path fill-rule="evenodd" clip-rule="evenodd" d="M146.103 29.439L146.823 27.3018L147.225 27.437L146.504 29.5743L146.103 29.439Z" fill="#F4F4F4"/>
<path fill-rule="evenodd" clip-rule="evenodd" d="M128.072 24.7572L128.19 22.5049L128.613 22.5271L128.495 24.7793L128.072 24.7572Z" fill="#F4F4F4"/>
<path fill-rule="evenodd" clip-rule="evenodd" d="M90.7863 25.1666L90.3925 22.9459L90.8096 22.8719L91.2033 25.0927L90.7863 25.1666Z" fill="#F4F4F4"/>
<path fill-rule="evenodd" clip-rule="evenodd" d="M72.5297 30.1232L71.788 27.9933L72.188 27.854L72.9296 29.9839L72.5297 30.1232Z" fill="#F4F4F4"/>
<path fill-rule="evenodd" clip-rule="evenodd" d="M55.7386 38.6288L54.5358 36.721L54.894 36.4951L56.0968 38.4029L55.7386 38.6288Z" fill="#F4F4F4"/>
<path fill-rule="evenodd" clip-rule="evenodd" d="M26.6844 63.4983L24.9048 62.1128L25.165 61.7786L26.9446 63.1641L26.6844 63.4983Z" fill="#F4F4F4"/>
<path fill-rule="evenodd" clip-rule="evenodd" d="M41.3045 9.76802H27.8933V19.7426H41.3045V9.76802ZM27.4697 9.34448V20.1662H41.728V9.34448H27.4697Z" fill="#F4F4F4"/>
<path fill-rule="evenodd" clip-rule="evenodd" d="M103.843 17.2917V10.1768H103.419V17.7152H116.377V10.1768H115.954V17.2917H103.843Z" fill="#F4F4F4"/>
<path fill-rule="evenodd" clip-rule="evenodd" d="M110.002 21.7937C87.4763 21.7614 65.4883 28.6734 47.0328 41.5883C28.5773 54.5032 14.5514 72.7932 6.86557 93.9669L6.06934 93.6779C13.8146 72.3404 27.9489 53.9091 46.5472 40.8943C65.1454 27.8796 87.3033 20.9141 110.003 20.9466C132.703 20.9792 154.841 28.0082 173.401 41.0762C191.962 54.1442 206.044 72.616 213.728 93.9756L212.931 94.2624C205.306 73.0667 191.332 54.7366 172.914 41.7688C154.495 28.8011 132.527 21.826 110.002 21.7937Z" fill="#F4F4F4"/>
<path fill-rule="evenodd" clip-rule="evenodd" d="M50.8426 69.3809C66.6159 53.2564 88.0111 44.196 110.322 44.196C132.633 44.196 154.028 53.2564 169.802 69.3809C185.575 85.5051 194.434 107.372 194.434 130.171H193.587C193.587 107.591 184.812 85.9372 169.196 69.9733C153.58 54.0096 132.402 45.0431 110.322 45.0431C88.2419 45.0431 67.0641 54.0096 51.4481 69.9732C35.8318 85.9372 27.057 107.591 27.057 130.171H26.21C26.21 107.372 35.0695 85.5051 50.8426 69.3809Z" fill="#F4F4F4"/>
<path fill-rule="evenodd" clip-rule="evenodd" d="M50.8426 69.3809C66.6159 53.2564 88.0111 44.196 110.322 44.196C132.633 44.196 154.028 53.2564 169.802 69.3809C185.575 85.5051 194.434 107.372 194.434 130.171H193.587C193.587 107.591 184.812 85.9372 169.196 69.9733C153.58 54.0096 132.402 45.0431 110.322 45.0431C88.2419 45.0431 67.0641 54.0096 51.4481 69.9732C35.8318 85.9372 27.057 107.591 27.057 130.171H26.21C26.21 107.372 35.0695 85.5051 50.8426 69.3809Z" fill="#F4F4F4"/>
<path fill-rule="evenodd" clip-rule="evenodd" d="M70.8248 89.8085C81.2984 79.1017 95.5056 73.085 110.322 73.085C125.138 73.085 139.345 79.1017 149.819 89.8085C160.292 100.515 166.174 115.034 166.174 130.171H165.327C165.327 115.253 159.53 100.947 149.213 90.4008C138.897 79.8549 124.907 73.932 110.322 73.932C95.7364 73.932 81.7465 79.8549 71.4303 90.4008C61.1137 100.947 55.3163 115.253 55.3163 130.171H54.4692C54.4692 115.034 60.3515 100.515 70.8248 89.8085Z" fill="#F4F4F4"/>
<path fill-rule="evenodd" clip-rule="evenodd" d="M70.8248 89.8085C81.2984 79.1017 95.5056 73.085 110.322 73.085C125.138 73.085 139.345 79.1017 149.819 89.8085C160.292 100.515 166.174 115.034 166.174 130.171H165.327C165.327 115.253 159.53 100.947 149.213 90.4008C138.897 79.8549 124.907 73.932 110.322 73.932C95.7364 73.932 81.7465 79.8549 71.4303 90.4008C61.1137 100.947 55.3163 115.253 55.3163 130.171H54.4692C54.4692 115.034 60.3515 100.515 70.8248 89.8085Z" fill="#F4F4F4"/>
<path fill-rule="evenodd" clip-rule="evenodd" d="M89.5085 109.341C94.9146 103.814 102.249 100.708 109.898 100.708C117.548 100.708 124.882 103.814 130.288 109.341C135.694 114.867 138.729 122.36 138.729 130.171H137.882C137.882 122.579 134.932 115.299 129.683 109.933C124.434 104.568 117.317 101.555 109.898 101.555C102.48 101.555 95.3628 104.568 90.114 109.933C84.865 115.299 81.9145 122.579 81.9145 130.171H81.0674C81.0674 122.36 84.1027 114.867 89.5085 109.341Z" fill="#F4F4F4"/>
<path fill-rule="evenodd" clip-rule="evenodd" d="M89.5085 109.341C94.9146 103.814 102.249 100.708 109.898 100.708C117.548 100.708 124.882 103.814 130.288 109.341C135.694 114.867 138.729 122.36 138.729 130.171H137.882C137.882 122.579 134.932 115.299 129.683 109.933C124.434 104.568 117.317 101.555 109.898 101.555C102.48 101.555 95.3628 104.568 90.114 109.933C84.865 115.299 81.9145 122.579 81.9145 130.171H81.0674C81.0674 122.36 84.1027 114.867 89.5085 109.341Z" fill="#F4F4F4"/>
</svg>
