<svg width="699" height="699" viewBox="0 0 699 699" fill="none" xmlns="http://www.w3.org/2000/svg">
<line x1="27" y1="675" x2="687" y2="675" stroke="url(#paint0_linear_230_14)" stroke-width="6" stroke-linecap="round" stroke-dasharray="0.1 20"/>
<line x1="27" y1="651" x2="687" y2="651" stroke="url(#paint1_linear_230_14)" stroke-width="6" stroke-linecap="round" stroke-dasharray="0.1 20"/>
<line x1="27" y1="627" x2="687" y2="627" stroke="url(#paint2_linear_230_14)" stroke-width="6" stroke-linecap="round" stroke-dasharray="0.1 20"/>
<line x1="27" y1="603" x2="687" y2="603" stroke="url(#paint3_linear_230_14)" stroke-width="6" stroke-linecap="round" stroke-dasharray="0.1 20"/>
<line x1="27" y1="579" x2="687" y2="579" stroke="url(#paint4_linear_230_14)" stroke-width="6" stroke-linecap="round" stroke-dasharray="0.1 20"/>
<line x1="27" y1="555" x2="687" y2="555" stroke="url(#paint5_linear_230_14)" stroke-width="6" stroke-linecap="round" stroke-dasharray="0.1 20"/>
<line x1="27" y1="531" x2="687" y2="531" stroke="url(#paint6_linear_230_14)" stroke-width="6" stroke-linecap="round" stroke-dasharray="0.1 20"/>
<line x1="27" y1="507" x2="687" y2="507" stroke="url(#paint7_linear_230_14)" stroke-width="6" stroke-linecap="round" stroke-dasharray="0.1 20"/>
<line x1="27" y1="483" x2="687" y2="483" stroke="url(#paint8_linear_230_14)" stroke-width="6" stroke-linecap="round" stroke-dasharray="0.1 20"/>
<line x1="27" y1="459" x2="687" y2="459" stroke="url(#paint9_linear_230_14)" stroke-width="6" stroke-linecap="round" stroke-dasharray="0.1 20"/>
<line x1="27" y1="435" x2="687" y2="435" stroke="url(#paint10_linear_230_14)" stroke-width="6" stroke-linecap="round" stroke-dasharray="0.1 20"/>
<line x1="27" y1="411" x2="687" y2="411" stroke="url(#paint11_linear_230_14)" stroke-width="6" stroke-linecap="round" stroke-dasharray="0.1 20"/>
<line x1="27" y1="387" x2="687" y2="387" stroke="url(#paint12_linear_230_14)" stroke-width="6" stroke-linecap="round" stroke-dasharray="0.1 20"/>
<line x1="27" y1="363" x2="687" y2="363" stroke="url(#paint13_linear_230_14)" stroke-width="6" stroke-linecap="round" stroke-dasharray="0.1 20"/>
<line x1="27" y1="339" x2="687" y2="339" stroke="url(#paint14_linear_230_14)" stroke-width="6" stroke-linecap="round" stroke-dasharray="0.1 20"/>
<line x1="27" y1="315" x2="687" y2="315" stroke="url(#paint15_linear_230_14)" stroke-width="6" stroke-linecap="round" stroke-dasharray="0.1 20"/>
<line x1="27" y1="291" x2="687" y2="291" stroke="url(#paint16_linear_230_14)" stroke-width="6" stroke-linecap="round" stroke-dasharray="0.1 20"/>
<line x1="27" y1="267" x2="687" y2="267" stroke="url(#paint17_linear_230_14)" stroke-width="6" stroke-linecap="round" stroke-dasharray="0.1 20"/>
<line x1="27" y1="243" x2="687" y2="243" stroke="url(#paint18_linear_230_14)" stroke-width="6" stroke-linecap="round" stroke-dasharray="0.1 20"/>
<line x1="27" y1="219" x2="687" y2="219" stroke="url(#paint19_linear_230_14)" stroke-width="6" stroke-linecap="round" stroke-dasharray="0.1 20"/>
<line x1="27" y1="195" x2="687" y2="195" stroke="url(#paint20_linear_230_14)" stroke-width="6" stroke-linecap="round" stroke-dasharray="0.1 20"/>
<line x1="27" y1="171" x2="687" y2="171" stroke="url(#paint21_linear_230_14)" stroke-width="6" stroke-linecap="round" stroke-dasharray="0.1 20"/>
<line x1="27" y1="147" x2="687" y2="147" stroke="url(#paint22_linear_230_14)" stroke-width="6" stroke-linecap="round" stroke-dasharray="0.1 20"/>
<line x1="27" y1="123" x2="687" y2="123" stroke="url(#paint23_linear_230_14)" stroke-width="6" stroke-linecap="round" stroke-dasharray="0.1 20"/>
<line x1="27" y1="99" x2="687" y2="99" stroke="url(#paint24_linear_230_14)" stroke-width="6" stroke-linecap="round" stroke-dasharray="0.1 20"/>
<line x1="27" y1="75" x2="687" y2="75" stroke="url(#paint25_linear_230_14)" stroke-width="6" stroke-linecap="round" stroke-dasharray="0.1 20"/>
<line x1="27" y1="51" x2="687" y2="51" stroke="url(#paint26_linear_230_14)" stroke-width="6" stroke-linecap="round" stroke-dasharray="0.1 20"/>
<line x1="27" y1="27" x2="687" y2="27" stroke="url(#paint27_linear_230_14)" stroke-width="6" stroke-linecap="round" stroke-dasharray="0.1 20"/>
<path d="M8 8H649C672.196 8 691 26.804 691 50V649C691 672.196 672.196 691 649 691H8V8Z" stroke="url(#paint28_linear_230_14)" stroke-width="16"/>
<rect x="182" y="303" width="363" height="102" rx="51" fill="#080D19"/>
<path d="M238.216 323C252.733 323 258.837 329.854 258.837 339.907C258.837 347.033 255.728 351.331 249.981 353.615C255.828 355.986 259.108 360.555 259.108 367.695C259.108 377.562 252.99 384.688 238.487 384.688H211.105C207.64 384.688 206 383.046 206 379.661V328.026C206 324.642 207.64 323 211.105 323H238.216ZM216.582 349.046H238.487C244.876 349.046 247.984 346.676 247.984 341.649C247.984 336.623 245.161 333.61 238.586 333.61H217.765C217.038 333.61 216.582 333.981 216.582 334.709V349.06V349.046ZM216.582 372.993C216.582 373.721 217.038 373.992 217.765 373.992H238.758C245.232 373.992 248.255 370.979 248.255 365.953C248.255 360.927 245.061 357.999 238.758 357.999H216.582V372.993Z" fill="#F4F4F4"/>
<path d="M305.385 323C316.879 323 320.259 329.583 320.259 335.609C320.259 339.721 318.705 343.748 315.154 348.675L288.685 384.673H275.18L306.939 341.635C308.038 340.178 308.494 338.893 308.494 337.608C308.494 335.695 307.496 333.767 304.116 333.767H266.795V323H305.399H305.385Z" fill="#F4F4F4"/>
<path d="M363.897 323C378.401 323 384.519 329.854 384.519 339.907C384.519 346.947 381.41 351.416 375.763 353.701C381.51 356.072 384.79 360.555 384.79 367.681C384.79 377.548 378.672 384.673 364.168 384.673H349.109C334.591 384.673 328.573 377.548 328.573 367.681C328.573 360.555 331.767 356.072 337.515 353.701C331.853 351.416 328.758 346.933 328.758 339.907C328.758 329.854 334.876 323 349.38 323H363.897ZM364.439 373.992C370.914 373.992 373.937 371.065 373.937 366.039C373.937 361.012 370.743 358.356 364.439 358.356H348.838C342.634 358.356 339.34 361.012 339.34 366.039C339.34 371.065 342.449 373.992 348.838 373.992H364.439ZM364.168 349.046C370.557 349.046 373.666 346.676 373.666 341.549C373.666 336.794 370.843 333.595 364.268 333.595H349.123C342.549 333.595 339.625 336.794 339.625 341.549C339.625 346.661 342.82 349.046 349.209 349.046H364.183H364.168Z" fill="#F4F4F4"/>
<path d="M407.252 323L426.148 345.762L445.942 323H459.262L432.893 353.344L459.447 384.688H446.313L425.877 360.198L404.885 384.688H391.565L419.131 352.516L394.103 323H407.238H407.252Z" fill="#3EB1FF"/>
<path d="M479.355 323V348.132H510.843V323H521.71V384.688H510.843V358.913H479.355V384.688H468.588V323H479.355Z" fill="#0761E2"/>
<defs>
<linearGradient id="paint0_linear_230_14" x1="60" y1="670.5" x2="690" y2="678" gradientUnits="userSpaceOnUse">
<stop stop-color="#4ADD83"/>
<stop offset="1" stop-color="#3EB1FF"/>
</linearGradient>
<linearGradient id="paint1_linear_230_14" x1="60" y1="646.5" x2="690" y2="654" gradientUnits="userSpaceOnUse">
<stop stop-color="#4ADD83"/>
<stop offset="1" stop-color="#3EB1FF"/>
</linearGradient>
<linearGradient id="paint2_linear_230_14" x1="60" y1="622.5" x2="690" y2="630" gradientUnits="userSpaceOnUse">
<stop stop-color="#4ADD83"/>
<stop offset="1" stop-color="#3EB1FF"/>
</linearGradient>
<linearGradient id="paint3_linear_230_14" x1="60" y1="598.5" x2="690" y2="606" gradientUnits="userSpaceOnUse">
<stop stop-color="#4ADD83"/>
<stop offset="1" stop-color="#3EB1FF"/>
</linearGradient>
<linearGradient id="paint4_linear_230_14" x1="60" y1="574.5" x2="690" y2="582" gradientUnits="userSpaceOnUse">
<stop stop-color="#4ADD83"/>
<stop offset="1" stop-color="#3EB1FF"/>
</linearGradient>
<linearGradient id="paint5_linear_230_14" x1="60" y1="550.5" x2="690" y2="558" gradientUnits="userSpaceOnUse">
<stop stop-color="#4ADD83"/>
<stop offset="1" stop-color="#3EB1FF"/>
</linearGradient>
<linearGradient id="paint6_linear_230_14" x1="60" y1="526.5" x2="690" y2="534" gradientUnits="userSpaceOnUse">
<stop stop-color="#4ADD83"/>
<stop offset="1" stop-color="#3EB1FF"/>
</linearGradient>
<linearGradient id="paint7_linear_230_14" x1="60" y1="502.5" x2="690" y2="510" gradientUnits="userSpaceOnUse">
<stop stop-color="#4ADD83"/>
<stop offset="1" stop-color="#3EB1FF"/>
</linearGradient>
<linearGradient id="paint8_linear_230_14" x1="60" y1="478.5" x2="690" y2="486" gradientUnits="userSpaceOnUse">
<stop stop-color="#4ADD83"/>
<stop offset="1" stop-color="#3EB1FF"/>
</linearGradient>
<linearGradient id="paint9_linear_230_14" x1="60" y1="454.5" x2="690" y2="462" gradientUnits="userSpaceOnUse">
<stop stop-color="#4ADD83"/>
<stop offset="1" stop-color="#3EB1FF"/>
</linearGradient>
<linearGradient id="paint10_linear_230_14" x1="60" y1="430.5" x2="690" y2="438" gradientUnits="userSpaceOnUse">
<stop stop-color="#4ADD83"/>
<stop offset="1" stop-color="#3EB1FF"/>
</linearGradient>
<linearGradient id="paint11_linear_230_14" x1="60" y1="406.5" x2="690" y2="414" gradientUnits="userSpaceOnUse">
<stop stop-color="#4ADD83"/>
<stop offset="1" stop-color="#3EB1FF"/>
</linearGradient>
<linearGradient id="paint12_linear_230_14" x1="60" y1="382.5" x2="690" y2="390" gradientUnits="userSpaceOnUse">
<stop stop-color="#4ADD83"/>
<stop offset="1" stop-color="#3EB1FF"/>
</linearGradient>
<linearGradient id="paint13_linear_230_14" x1="60" y1="358.5" x2="690" y2="366" gradientUnits="userSpaceOnUse">
<stop stop-color="#4ADD83"/>
<stop offset="1" stop-color="#3EB1FF"/>
</linearGradient>
<linearGradient id="paint14_linear_230_14" x1="60" y1="334.5" x2="690" y2="342" gradientUnits="userSpaceOnUse">
<stop stop-color="#4ADD83"/>
<stop offset="1" stop-color="#3EB1FF"/>
</linearGradient>
<linearGradient id="paint15_linear_230_14" x1="60" y1="310.5" x2="690" y2="318" gradientUnits="userSpaceOnUse">
<stop stop-color="#4ADD83"/>
<stop offset="1" stop-color="#3EB1FF"/>
</linearGradient>
<linearGradient id="paint16_linear_230_14" x1="60" y1="286.5" x2="690" y2="294" gradientUnits="userSpaceOnUse">
<stop stop-color="#4ADD83"/>
<stop offset="1" stop-color="#3EB1FF"/>
</linearGradient>
<linearGradient id="paint17_linear_230_14" x1="60" y1="262.5" x2="690" y2="270" gradientUnits="userSpaceOnUse">
<stop stop-color="#4ADD83"/>
<stop offset="1" stop-color="#3EB1FF"/>
</linearGradient>
<linearGradient id="paint18_linear_230_14" x1="60" y1="238.5" x2="690" y2="246" gradientUnits="userSpaceOnUse">
<stop stop-color="#4ADD83"/>
<stop offset="1" stop-color="#3EB1FF"/>
</linearGradient>
<linearGradient id="paint19_linear_230_14" x1="60" y1="214.5" x2="690" y2="222" gradientUnits="userSpaceOnUse">
<stop stop-color="#4ADD83"/>
<stop offset="1" stop-color="#3EB1FF"/>
</linearGradient>
<linearGradient id="paint20_linear_230_14" x1="60" y1="190.5" x2="690" y2="198" gradientUnits="userSpaceOnUse">
<stop stop-color="#4ADD83"/>
<stop offset="1" stop-color="#3EB1FF"/>
</linearGradient>
<linearGradient id="paint21_linear_230_14" x1="60" y1="166.5" x2="690" y2="174" gradientUnits="userSpaceOnUse">
<stop stop-color="#4ADD83"/>
<stop offset="1" stop-color="#3EB1FF"/>
</linearGradient>
<linearGradient id="paint22_linear_230_14" x1="60" y1="142.5" x2="690" y2="150" gradientUnits="userSpaceOnUse">
<stop stop-color="#4ADD83"/>
<stop offset="1" stop-color="#3EB1FF"/>
</linearGradient>
<linearGradient id="paint23_linear_230_14" x1="60" y1="118.5" x2="690" y2="126" gradientUnits="userSpaceOnUse">
<stop stop-color="#4ADD83"/>
<stop offset="1" stop-color="#3EB1FF"/>
</linearGradient>
<linearGradient id="paint24_linear_230_14" x1="60" y1="94.4996" x2="690" y2="102" gradientUnits="userSpaceOnUse">
<stop stop-color="#4ADD83"/>
<stop offset="1" stop-color="#3EB1FF"/>
</linearGradient>
<linearGradient id="paint25_linear_230_14" x1="60" y1="70.4996" x2="690" y2="77.9996" gradientUnits="userSpaceOnUse">
<stop stop-color="#4ADD83"/>
<stop offset="1" stop-color="#3EB1FF"/>
</linearGradient>
<linearGradient id="paint26_linear_230_14" x1="60" y1="46.4996" x2="690" y2="53.9996" gradientUnits="userSpaceOnUse">
<stop stop-color="#4ADD83"/>
<stop offset="1" stop-color="#3EB1FF"/>
</linearGradient>
<linearGradient id="paint27_linear_230_14" x1="60" y1="22.4996" x2="690" y2="29.9996" gradientUnits="userSpaceOnUse">
<stop stop-color="#4ADD83"/>
<stop offset="1" stop-color="#3EB1FF"/>
</linearGradient>
<linearGradient id="paint28_linear_230_14" x1="9.15357" y1="468.551" x2="658.641" y2="468.551" gradientUnits="userSpaceOnUse">
<stop stop-color="#4ADE80"/>
<stop offset="1" stop-color="#3EB1FF"/>
</linearGradient>
</defs>
</svg>
