<svg width="216" height="179" viewBox="0 0 216 179" fill="none" xmlns="http://www.w3.org/2000/svg">
<path fill-rule="evenodd" clip-rule="evenodd" d="M1.79565 0.999954L1.79565 177.06L214.22 177.06L214.22 0.999945L1.79565 0.999954ZM0.795654 178.06L215.22 178.06L215.22 -5.51492e-05L0.795647 -4.57764e-05L0.795654 178.06Z" fill="#F4F4F4"/>
<rect x="112.479" y="12.6216" width="16.1373" height="6.10569" stroke="#F4F4F4"/>
<line x1="85.6455" y1="49.822" x2="75.6139" y2="49.822" stroke="#F4F4F4"/>
<line x1="85.6455" y1="42.2981" x2="75.6139" y2="42.2981" stroke="#F4F4F4"/>
<line x1="94.4233" y1="45.6421" x2="67.2545" y2="45.6421" stroke="#F4F4F4"/>
<line x1="60.1489" y1="53.0017" x2="100.693" y2="53.0017" stroke="#F4F4F4"/>
<line x1="60.1489" y1="38.3724" x2="100.693" y2="38.3724" stroke="#F4F4F4"/>
<line x1="76.0322" y1="57.1815" x2="86.0638" y2="57.1815" stroke="#F4F4F4"/>
<line x1="76.0322" y1="64.7052" x2="86.0638" y2="64.7052" stroke="#F4F4F4"/>
<g style="mix-blend-mode:screen">
<rect x="110.807" y="21.8171" width="17.8092" height="93.4639" stroke="#F4F4F4"/>
</g>
<line x1="0.795654" y1="135.344" x2="154.613" y2="135.344" stroke="#F4F4F4"/>
<line x1="155.113" y1="0.418091" x2="155.113" y2="178.06" stroke="#F4F4F4"/>
<line x1="154.613" y1="38.7904" x2="215.221" y2="38.7904" stroke="#F4F4F4"/>
<g style="mix-blend-mode:screen">
<rect x="28.0466" y="21.8171" width="17.8092" height="93.4639" stroke="#F4F4F4"/>
</g>
<g style="mix-blend-mode:screen">
<rect x="66.0828" y="126.313" width="29.0947" height="3.5978" stroke="#F4F4F4"/>
</g>
<g style="mix-blend-mode:screen">
<rect x="46.8557" y="3.00793" width="62.9513" height="10.2855" stroke="#F4F4F4"/>
</g>
<line x1="0.795654" y1="67.5491" x2="154.613" y2="67.5491" stroke="#F4F4F4" stroke-width="2"/>
<line x1="67.2549" y1="61.3613" x2="94.4237" y2="61.3613" stroke="#F4F4F4"/>
<line x1="75.6143" y1="86.8584" x2="85.6458" y2="86.8584" stroke="#F4F4F4"/>
<line x1="75.6143" y1="94.382" x2="85.6458" y2="94.382" stroke="#F4F4F4"/>
<line x1="66.8364" y1="91.0382" x2="94.0053" y2="91.0382" stroke="#F4F4F4"/>
<line x1="101.111" y1="83.6785" x2="60.5671" y2="83.6785" stroke="#F4F4F4"/>
<line x1="101.111" y1="98.3077" x2="60.5671" y2="98.3077" stroke="#F4F4F4"/>
<line x1="85.228" y1="79.4987" x2="75.1965" y2="79.4987" stroke="#F4F4F4"/>
<line x1="85.228" y1="71.975" x2="75.1965" y2="71.975" stroke="#F4F4F4"/>
<line x1="94.0059" y1="75.3188" x2="66.837" y2="75.3188" stroke="#F4F4F4"/>
<rect x="28.0466" y="12.6216" width="16.1373" height="6.10569" stroke="#F4F4F4"/>
</svg>
