<svg width="1781" height="647" viewBox="0 0 1781 647" fill="none" xmlns="http://www.w3.org/2000/svg">
<line x1="3.92068" y1="643.884" x2="1777.92" y2="643.884" stroke="#3EB1FF" stroke-width="6" stroke-linecap="round" stroke-dasharray="0.1 20"/>
<line x1="3.92068" y1="620.18" x2="1777.92" y2="620.18" stroke="#3EB1FF" stroke-width="6" stroke-linecap="round" stroke-dasharray="0.1 20"/>
<line x1="3.92068" y1="596.477" x2="1777.92" y2="596.477" stroke="#3EB1FF" stroke-width="6" stroke-linecap="round" stroke-dasharray="0.1 20"/>
<line x1="3.92068" y1="572.773" x2="1777.92" y2="572.773" stroke="#3EB1FF" stroke-width="6" stroke-linecap="round" stroke-dasharray="0.1 20"/>
<line x1="3.92068" y1="549.069" x2="1777.92" y2="549.069" stroke="#3EB1FF" stroke-width="6" stroke-linecap="round" stroke-dasharray="0.1 20"/>
<line x1="3.92068" y1="525.366" x2="1777.92" y2="525.366" stroke="#3EB1FF" stroke-width="6" stroke-linecap="round" stroke-dasharray="0.1 20"/>
<line x1="3.92068" y1="501.662" x2="1777.92" y2="501.662" stroke="#3EB1FF" stroke-width="6" stroke-linecap="round" stroke-dasharray="0.1 20"/>
<line x1="3.92068" y1="477.958" x2="1777.92" y2="477.958" stroke="#3EB1FF" stroke-width="6" stroke-linecap="round" stroke-dasharray="0.1 20"/>
<line x1="3.92068" y1="454.254" x2="1777.92" y2="454.254" stroke="#3EB1FF" stroke-width="6" stroke-linecap="round" stroke-dasharray="0.1 20"/>
<line x1="3.92068" y1="430.551" x2="1777.92" y2="430.551" stroke="#3EB1FF" stroke-width="6" stroke-linecap="round" stroke-dasharray="0.1 20"/>
<line x1="3.92068" y1="406.847" x2="1777.92" y2="406.847" stroke="#3EB1FF" stroke-width="6" stroke-linecap="round" stroke-dasharray="0.1 20"/>
<line x1="3.92068" y1="383.143" x2="1777.92" y2="383.143" stroke="#3EB1FF" stroke-width="6" stroke-linecap="round" stroke-dasharray="0.1 20"/>
<line x1="3.92068" y1="359.44" x2="1777.92" y2="359.44" stroke="#3EB1FF" stroke-width="6" stroke-linecap="round" stroke-dasharray="0.1 20"/>
<line x1="3.92068" y1="335.736" x2="1777.92" y2="335.736" stroke="#3EB1FF" stroke-width="6" stroke-linecap="round" stroke-dasharray="0.1 20"/>
<line x1="3.92068" y1="312.032" x2="1777.92" y2="312.032" stroke="#3EB1FF" stroke-width="6" stroke-linecap="round" stroke-dasharray="0.1 20"/>
<line x1="3.92068" y1="288.329" x2="1777.92" y2="288.329" stroke="#3EB1FF" stroke-width="6" stroke-linecap="round" stroke-dasharray="0.1 20"/>
<line x1="3.92068" y1="264.625" x2="1777.92" y2="264.625" stroke="#3EB1FF" stroke-width="6" stroke-linecap="round" stroke-dasharray="0.1 20"/>
<line x1="3.92068" y1="240.921" x2="1777.92" y2="240.921" stroke="#3EB1FF" stroke-width="6" stroke-linecap="round" stroke-dasharray="0.1 20"/>
<line x1="3.92068" y1="217.217" x2="1777.92" y2="217.217" stroke="#3EB1FF" stroke-width="6" stroke-linecap="round" stroke-dasharray="0.1 20"/>
<line x1="3.92068" y1="193.514" x2="1777.92" y2="193.514" stroke="#3EB1FF" stroke-width="6" stroke-linecap="round" stroke-dasharray="0.1 20"/>
<line x1="3.92068" y1="169.81" x2="1777.92" y2="169.81" stroke="#3EB1FF" stroke-width="6" stroke-linecap="round" stroke-dasharray="0.1 20"/>
<line x1="3.92068" y1="146.106" x2="1777.92" y2="146.106" stroke="#3EB1FF" stroke-width="6" stroke-linecap="round" stroke-dasharray="0.1 20"/>
<line x1="3.92068" y1="122.403" x2="1777.92" y2="122.403" stroke="#3EB1FF" stroke-width="6" stroke-linecap="round" stroke-dasharray="0.1 20"/>
<line x1="3.92068" y1="98.6989" x2="1777.92" y2="98.6989" stroke="#3EB1FF" stroke-width="6" stroke-linecap="round" stroke-dasharray="0.1 20"/>
<line x1="3.92068" y1="74.9952" x2="1777.92" y2="74.9952" stroke="#3EB1FF" stroke-width="6" stroke-linecap="round" stroke-dasharray="0.1 20"/>
<line x1="3.92068" y1="51.2915" x2="1777.92" y2="51.2915" stroke="#3EB1FF" stroke-width="6" stroke-linecap="round" stroke-dasharray="0.1 20"/>
<line x1="3.92068" y1="27.5878" x2="1777.92" y2="27.5878" stroke="#3EB1FF" stroke-width="6" stroke-linecap="round" stroke-dasharray="0.1 20"/>
<line x1="3.92068" y1="3.88409" x2="1777.92" y2="3.88409" stroke="#3EB1FF" stroke-width="6" stroke-linecap="round" stroke-dasharray="0.1 20"/>
</svg>
