<svg width="491" height="100" viewBox="0 0 491 100" fill="none" xmlns="http://www.w3.org/2000/svg">
<path d="M1.30178 95.0882H38.7772V99.5632H1.30178V95.0882ZM39.9014 74.145C39.4872 72.355 37.8502 71.281 36.2722 71.7732L25.7989 74.9505L12.1499 60.5632L8.38266 61.7044L16.5483 77.7474L6.74557 80.7233L2.85996 77.2775L0 78.1502L3.58975 85.2207L5.10849 88.1966L8.26431 87.2569L18.7377 84.0572L27.3176 81.4617L37.791 78.3068C39.3886 77.7698 40.3156 75.935 39.9014 74.145Z" fill="#F4F4F4"/>
<path d="M452 93.8947H491V98H452V93.8947ZM466.738 82.1332L475.667 84.5142L486.566 87.4289C488.208 87.86 489.892 86.8953 490.343 85.2532C490.774 83.6316 489.809 81.9279 488.167 81.4763L477.268 78.5616L471.603 60.0263L467.641 59V75.9958L457.439 73.2658L455.531 68.5037L452.554 67.7032V78.3153L455.838 79.1979L466.738 82.1332Z" fill="#F4F4F4"/>
<path d="M122.172 42.4921L160.688 9.01562H270.916L337.402 40.9922H375.913C399.141 54.386 418.827 67.3663 442.056 80.7601L48.4961 72.7461L85.2383 42.4921H122.172Z" fill="url(#paint0_linear_117_2)"/>
<path fill-rule="evenodd" clip-rule="evenodd" d="M160.492 1C160.381 0.999406 160.32 1.07505 160.303 1.16354L158.671 6.67089C156.829 7.21592 154.986 7.75855 153.147 8.30821C153.052 8.33691 153 8.39402 153 8.49537C153 8.59657 153.089 8.65711 153.172 8.68252L158.665 10.3101C159.213 12.1582 159.757 14.0078 160.308 15.8526C160.337 15.9483 160.394 16.0003 160.495 16C160.597 15.9997 160.657 15.9108 160.683 15.8282L162.316 10.316L167.834 8.68103C167.944 8.6453 168 8.6027 168 8.49178C168.001 8.38086 167.925 8.32002 167.837 8.30298L162.311 6.66536L160.681 1.16608C160.645 1.05636 160.603 1.0006 160.492 1.00015V1ZM160.492 3.15738L161.594 6.87748C161.629 6.99691 161.694 7.1056 161.782 7.19368C161.87 7.28176 161.979 7.34645 162.098 7.38185L165.842 8.49148L162.104 9.59917C161.984 9.6346 161.875 9.69933 161.787 9.78746C161.699 9.8756 161.635 9.98435 161.599 10.1038L160.492 13.8414C160.122 12.5941 159.752 11.3471 159.382 10.0979C159.347 9.9784 159.282 9.86968 159.194 9.78157C159.106 9.69346 158.997 9.62876 158.878 9.59334L155.159 8.49163C156.4 8.12345 157.641 7.75541 158.883 7.38768C159.003 7.3523 159.111 7.28762 159.2 7.19951C159.288 7.11139 159.352 7.00265 159.388 6.88316L160.492 3.15738Z" fill="#F4F4F4"/>
<path fill-rule="evenodd" clip-rule="evenodd" d="M121.82 35.1287C121.709 35.1281 121.648 35.1987 121.631 35.2813L119.999 40.4215C118.157 40.9302 116.314 41.4366 114.476 41.9497C114.38 41.9764 114.328 42.0297 114.328 42.1243C114.328 42.2188 114.417 42.2753 114.5 42.299L119.994 43.8181C120.541 45.543 121.085 47.2693 121.636 48.9911C121.665 49.0804 121.722 49.1289 121.824 49.1287C121.925 49.1284 121.985 49.0454 122.011 48.9684L123.644 43.8236L129.162 42.2976C129.272 42.2643 129.328 42.2245 129.328 42.121C129.329 42.0175 129.253 41.9607 129.165 41.9448L123.639 40.4163L122.009 35.2837C121.973 35.1813 121.931 35.1292 121.82 35.1288V35.1287ZM121.82 37.1422L122.922 40.6143C122.958 40.7258 123.022 40.8272 123.11 40.9094C123.198 40.9916 123.307 41.052 123.426 41.0851L127.171 42.1207L123.432 43.1546C123.312 43.1876 123.204 43.248 123.116 43.3303C123.027 43.4126 122.963 43.5141 122.928 43.6256L121.82 47.114C121.45 45.9498 121.08 44.786 120.71 43.62C120.675 43.5085 120.61 43.407 120.522 43.3248C120.434 43.2426 120.325 43.1822 120.206 43.1491L116.487 42.1209C117.728 41.7772 118.969 41.4337 120.211 41.0905C120.331 41.0575 120.44 40.9971 120.528 40.9149C120.616 40.8326 120.68 40.7311 120.716 40.6196L121.82 37.1422Z" fill="#F4F4F4"/>
<path fill-rule="evenodd" clip-rule="evenodd" d="M84.9913 34C84.873 33.9994 84.8081 34.08 84.7899 34.1744L83.049 40.049C81.0844 40.6303 79.1183 41.2091 77.1572 41.7954C77.0552 41.826 76.9997 41.887 77 41.9951C77.0003 42.103 77.0952 42.1676 77.1832 42.1947L83.0431 43.9308C83.6267 45.9021 84.2071 47.875 84.7955 49.8428C84.8261 49.9448 84.887 50.0003 84.9951 50C85.1031 49.9997 85.1677 49.9048 85.1948 49.8168L86.9368 43.937L92.823 42.1931C92.94 42.155 92.9995 42.1095 93 41.9912C93.0008 41.8729 92.9201 41.808 92.8257 41.7898L86.9312 40.0431L85.1932 34.1772C85.1551 34.0601 85.1096 34.0006 84.9913 34.0002V34ZM84.9913 36.3012L86.167 40.2693C86.2047 40.3967 86.2736 40.5126 86.3676 40.6066C86.4615 40.7005 86.5774 40.7695 86.7048 40.8073L90.6986 41.9909L86.7105 43.1724C86.5831 43.2102 86.4672 43.2793 86.3732 43.3733C86.2793 43.4673 86.2104 43.5833 86.1727 43.7108L84.9913 47.6975C84.5967 46.3671 84.202 45.0369 83.8075 43.7044C83.7698 43.577 83.7009 43.461 83.6069 43.367C83.513 43.273 83.3971 43.204 83.2697 43.1662L79.303 41.9911C80.6266 41.5983 81.9499 41.2058 83.2754 40.8135C83.4029 40.7758 83.5189 40.7068 83.6129 40.6128C83.7069 40.5188 83.7759 40.4028 83.8136 40.2754L84.9913 36.3012Z" fill="#F4F4F4"/>
<path d="M279 9C279 13.4183 275.418 17 271 17C266.582 17 263 13.4183 263 9C263 4.58172 266.582 1 271 1C275.418 1 279 4.58172 279 9Z" stroke="#4EF07B" stroke-width="2"/>
<path fill-rule="evenodd" clip-rule="evenodd" d="M337.492 33C337.381 32.9994 337.32 33.075 337.303 33.1635L335.671 38.6709C333.829 39.2159 331.986 39.7586 330.147 40.3082C330.052 40.3369 330 40.394 330 40.4954C330 40.5966 330.089 40.6571 330.172 40.6825L335.665 42.3101C336.213 44.1582 336.757 46.0078 337.308 47.8526C337.337 47.9483 337.394 48.0003 337.495 48C337.597 47.9997 337.657 47.9108 337.683 47.8282L339.316 42.316L344.834 40.681C344.944 40.6453 345 40.6027 345 40.4918C345.001 40.3809 344.925 40.32 344.837 40.303L339.311 38.6654L337.681 33.1661C337.645 33.0564 337.603 33.0006 337.492 33.0002V33ZM337.492 35.1574L338.594 38.8775C338.629 38.9969 338.694 39.1056 338.782 39.1937C338.87 39.2818 338.979 39.3464 339.098 39.3818L342.842 40.4915L339.104 41.5992C338.984 41.6346 338.875 41.6993 338.787 41.7875C338.699 41.8756 338.635 41.9844 338.599 42.1038L337.492 45.8414C337.122 44.5941 336.752 43.3471 336.382 42.0979C336.347 41.9784 336.282 41.8697 336.194 41.7816C336.106 41.6935 335.997 41.6288 335.878 41.5933L332.159 40.4916C333.4 40.1234 334.641 39.7554 335.883 39.3877C336.003 39.3523 336.111 39.2876 336.2 39.1995C336.288 39.1114 336.352 39.0026 336.388 38.8832L337.492 35.1574Z" fill="#F4F4F4"/>
<path fill-rule="evenodd" clip-rule="evenodd" d="M375.991 33C375.873 32.9994 375.808 33.075 375.79 33.1635L374.049 38.6709C372.084 39.2159 370.118 39.7586 368.157 40.3082C368.055 40.3369 368 40.394 368 40.4954C368 40.5966 368.095 40.6571 368.183 40.6825L374.043 42.3101C374.627 44.1582 375.207 46.0078 375.795 47.8526C375.826 47.9483 375.887 48.0003 375.995 48C376.103 47.9997 376.168 47.9108 376.195 47.8282L377.937 42.316L383.823 40.681C383.94 40.6453 384 40.6027 384 40.4918C384.001 40.3809 383.92 40.32 383.826 40.303L377.931 38.6654L376.193 33.1661C376.155 33.0564 376.11 33.0006 375.991 33.0002V33ZM375.991 35.1574L377.167 38.8775C377.205 38.9969 377.274 39.1056 377.368 39.1937C377.461 39.2818 377.577 39.3464 377.705 39.3818L381.699 40.4915L377.711 41.5992C377.583 41.6346 377.467 41.6993 377.373 41.7875C377.279 41.8756 377.21 41.9844 377.173 42.1038L375.991 45.8414C375.597 44.5941 375.202 43.3471 374.808 42.0979C374.77 41.9784 374.701 41.8697 374.607 41.7816C374.513 41.6935 374.397 41.6288 374.27 41.5933L370.303 40.4916C371.627 40.1234 372.95 39.7554 374.275 39.3877C374.403 39.3523 374.519 39.2876 374.613 39.1995C374.707 39.1114 374.776 39.0026 374.814 38.8832L375.991 35.1574Z" fill="#F4F4F4"/>
<path d="M48.1814 72.3682L85.0608 41.9971H121.983L160.498 8.52686H271.033L337.52 40.4961H375.998L439.163 78.6077" stroke="#3EB1FF" stroke-linecap="round"/>
<defs>
<linearGradient id="paint0_linear_117_2" x1="243.646" y1="13.1481" x2="243.646" y2="80.0632" gradientUnits="userSpaceOnUse">
<stop stop-color="#0761E2" stop-opacity="0.29"/>
<stop offset="1" stop-color="#0761E2" stop-opacity="0"/>
</linearGradient>
</defs>
</svg>
