<svg width="181" height="36" viewBox="0 0 181 36" fill="none" xmlns="http://www.w3.org/2000/svg">
<path d="M3.3137 0.212891C1.2997 0.212891 0.345703 1.16689 0.345703 3.12789V33.0729C0.345703 35.0339 1.2997 35.9879 3.3137 35.9879H19.2137C27.6407 35.9879 31.1917 31.8539 31.1917 26.1299C31.1917 21.9959 29.2837 19.3459 25.8917 17.9679C29.2307 16.6429 31.0327 14.1519 31.0327 10.0179C31.0327 4.18789 27.4817 0.212891 19.0547 0.212891H3.3137ZM6.4937 20.5119H19.3727C23.0297 20.5119 24.8847 22.1019 24.8847 25.1229C24.8847 28.0379 23.1357 29.7869 19.3727 29.7869H7.1827C6.7587 29.7869 6.4937 29.6279 6.4937 29.2039V20.5119ZM6.4937 6.99689C6.4937 6.57289 6.7587 6.36089 7.1827 6.36089H19.2667C23.0827 6.36089 24.7257 8.21589 24.7257 11.0249C24.7257 13.9399 22.9237 15.3179 19.2137 15.3179H6.4937V6.99689Z" fill="white"/>
<path d="M35.6305 0.212891V6.46689H57.3075C59.2685 6.46689 59.8515 7.57989 59.8515 8.69289C59.8515 9.43489 59.5865 10.1769 58.9505 11.0249L40.5065 35.9879H48.3505L63.7205 15.1059C65.7875 12.2439 66.6885 9.91189 66.6885 7.52689C66.6885 4.02889 64.7275 0.212891 58.0495 0.212891H35.6305Z" fill="white"/>
<path d="M83.6149 0.212891C75.1879 0.212891 71.6369 4.18789 71.6369 10.0179C71.6369 14.0989 73.4389 16.6959 76.7249 18.0209C73.3859 19.3989 71.5309 21.9959 71.5309 26.1299C71.5309 31.8539 75.0289 35.9879 83.4559 35.9879H92.2009C100.628 35.9879 104.179 31.8539 104.179 26.1299C104.179 21.9959 102.271 19.3989 98.9319 18.0209C102.218 16.6959 104.02 14.0989 104.02 10.0179C104.02 4.18789 100.469 0.212891 92.0419 0.212891H83.6149ZM83.2969 29.7869C79.5869 29.7869 77.7849 28.0909 77.7849 25.1759C77.7849 22.2609 79.6929 20.7239 83.2969 20.7239H92.3599C96.0169 20.7239 97.8719 22.2609 97.8719 25.1759C97.8719 28.0909 96.1229 29.7869 92.3599 29.7869H83.2969ZM83.5089 15.3179C79.7989 15.3179 77.9439 13.9399 77.9439 10.9719C77.9439 8.21589 79.6399 6.36089 83.4559 6.36089H92.2539C96.0699 6.36089 97.7129 8.21589 97.7129 10.9719C97.7129 13.9399 95.9109 15.3179 92.2009 15.3179H83.5089Z" fill="white"/>
<path d="M121.753 0.212891C113.008 0.212891 109.881 5.19489 109.881 11.6079C109.881 18.1799 113.114 21.3069 120.375 21.3069H135.374C134.526 27.2429 131.399 29.7339 125.675 29.7339H113.909V35.9879H125.675C136.063 35.9879 141.84 30.0519 141.84 17.5439C141.84 5.19489 136.116 0.212891 127.742 0.212891H121.753ZM115.976 11.6609C115.976 8.58689 117.725 6.46689 121.276 6.46689H126.258C132.247 6.46689 135.162 9.48789 135.533 16.2719H121.011C117.778 16.2719 115.976 14.8409 115.976 11.6609Z" fill="#3EB1FF"/>
<path d="M149.201 0.212891V35.9879H155.455V21.0419H173.74V35.9879H180.047V0.212891H173.74V14.7879H155.455V0.212891H149.201Z" fill="#0761E2"/>
</svg>
