<svg width="264" height="48" viewBox="0 0 264 48" fill="none" xmlns="http://www.w3.org/2000/svg">
<path d="M33.8549 8.85875L32.9112 7.96033C32.8136 7.86739 32.6591 7.86739 32.5614 7.96033L15.5353 24.1629C10.931 28.5465 10.931 35.6564 15.5353 40.0401C15.6329 40.133 15.7874 40.133 15.8851 40.0401L33.8549 22.9314C37.9386 19.0434 37.9386 12.739 33.8549 8.851V8.85875Z" fill="#FAFAFA"/>
<path d="M24.5 48C10.9868 48 0 37.2297 0 24C0 10.7703 10.9868 0 24.5 0C38.0132 0 49 10.7626 49 24C49 37.2374 38.0132 48 24.5 48ZM24.5 4.4176C13.4738 4.4176 4.50964 13.2066 4.50964 24C4.50964 34.7934 13.4817 43.5824 24.5 43.5824C35.5183 43.5824 44.4904 34.7934 44.4904 24C44.4904 13.2066 35.5262 4.40989 24.5 4.40989V4.4176Z" fill="white"/>
<path d="M59.6364 15.2979V21.9939H68.0219V15.2979H70.9121V31.7235H68.0219V24.8586H59.6364V31.7235H56.7695V15.2979H59.6364Z" fill="#F4F4F4"/>
<path d="M87.9796 15.2978V18.1684H79.7627C78.0356 18.1684 77.2854 18.9719 77.2854 20.2354C77.2854 21.5746 78.1344 22.1802 79.7918 22.1802H87.8632V24.7829H79.722C78.0705 24.7829 77.2214 25.4408 77.2214 26.7801C77.2214 28.1193 78.0239 28.8471 79.6987 28.8471H88.0086V31.7177H79.6987C75.8083 31.7177 74.2324 29.7962 74.2324 27.24C74.2324 25.3652 75.0814 24.1016 76.5876 23.467C75.0582 22.8323 74.2789 21.5688 74.2789 19.7696C74.2789 17.1436 75.9072 15.292 79.7743 15.292H87.9912L87.9796 15.2978Z" fill="#F4F4F4"/>
<path d="M93.353 31.7236H90.1953L95.9524 17.1263C96.5571 15.5949 97.6795 15.0068 99.4008 15.0068C101.122 15.0068 102.221 15.5891 102.803 17.1263L108.345 31.7294H105.158L100.174 18.5179C100.029 18.1278 99.7613 17.9589 99.3717 17.9589C98.9821 17.9589 98.7146 18.1278 98.5459 18.5179L93.3472 31.7294L93.353 31.7236Z" fill="#F4F4F4"/>
<path d="M110.513 15.2979L115.497 28.5094C115.642 28.8995 115.91 29.0684 116.299 29.0684C116.689 29.0684 116.933 28.8995 117.102 28.5094L122.324 15.2979H125.511L119.724 29.901C119.12 31.4324 117.997 32.0205 116.299 32.0205C114.694 32.0205 113.456 31.5081 112.845 29.901L107.355 15.2979H110.513Z" fill="#F4F4F4"/>
<path d="M130.228 15.2979L134.822 22.3316L139.462 15.2979H142.864L136.252 24.6432V31.7235H133.362V24.6432L126.756 15.2979H130.233H130.228Z" fill="#F4F4F4"/>
<path d="M158.815 15.2979C163.601 15.2979 166.206 17.9763 166.206 23.5252C166.206 29.0742 163.63 31.7235 158.815 31.7235H153.029C152.104 31.7235 151.668 31.2868 151.668 30.3843V16.6371C151.668 15.7345 152.104 15.2979 153.029 15.2979H158.815ZM154.535 28.5618C154.535 28.7831 154.634 28.853 154.849 28.853H158.809C161.996 28.853 163.327 27.2692 163.327 23.5019C163.327 19.7347 161.99 18.1742 158.809 18.1742H154.849C154.628 18.1742 154.535 18.2499 154.535 18.4654V28.5618Z" fill="#F4F4F4"/>
<path d="M172.451 15.2979V31.7235H169.584V15.2979H172.451Z" fill="#F4F4F4"/>
<path d="M178.04 15.2979L183.024 28.5094C183.169 28.8995 183.437 29.0684 183.827 29.0684C184.216 29.0684 184.46 28.8995 184.629 28.5094L189.857 15.2979H193.044L187.258 29.901C186.653 31.4324 185.53 32.0205 183.832 32.0205C182.227 32.0205 180.989 31.5081 180.378 29.901L174.883 15.2979H178.04Z" fill="#F4F4F4"/>
<path d="M198.34 15.2979V31.7235H195.473V15.2979H198.34Z" fill="#F4F4F4"/>
<path d="M214.966 15.2979V18.1684H206.558C205.075 18.1684 204.418 18.9719 204.418 20.1132C204.418 21.1088 204.929 22.0579 206.848 22.0579H210.686C215.158 22.0579 216.205 24.5384 216.205 26.9024C216.205 29.6739 214.722 31.7235 210.977 31.7235H201.842V28.853H211.076C212.629 28.853 213.338 28.0028 213.338 26.8092C213.338 25.7378 212.78 24.7655 210.762 24.7655H206.947C202.574 24.7655 201.551 22.3083 201.551 20.02C201.551 17.295 203.01 15.2979 206.657 15.2979H214.966Z" fill="#F4F4F4"/>
<path d="M222.257 15.2979V31.7235H219.391V15.2979H222.257Z" fill="#F4F4F4"/>
<path d="M235.261 15.2979C240.023 15.2979 242.675 18.0228 242.675 23.5485C242.675 29.0742 240.052 31.7235 235.261 31.7235H233.022C228.236 31.7235 225.607 29.0451 225.607 23.5485C225.607 18.052 228.259 15.2979 233.022 15.2979H235.261ZM233.022 18.1684C229.864 18.1684 228.474 19.7755 228.474 23.5485C228.474 27.3216 229.835 28.853 233.022 28.853H235.261C238.418 28.853 239.779 27.2983 239.779 23.5252C239.779 19.7522 238.418 18.1742 235.261 18.1742H233.022V18.1684Z" fill="#F4F4F4"/>
<path d="M248.896 31.7236H246.029V18.5819C246.029 16.4392 247.245 15.0068 249.798 15.0068C252.083 15.0068 253.101 16.1772 253.781 18.0463L258.567 28.5328C258.759 28.9229 259.079 29.2141 259.614 29.2141C260.218 29.2141 260.585 28.8472 260.585 28.2883V15.298H263.475V28.4164C263.475 30.5824 262.236 32.0206 259.707 32.0206C257.421 32.0206 256.375 30.8502 255.694 28.9812L250.908 18.4946C250.687 18.0055 250.397 17.7901 249.885 17.7901C249.228 17.7901 248.89 18.1569 248.89 18.7391V31.7236H248.896Z" fill="#F4F4F4"/>
</svg>
