<svg width="721" height="547" viewBox="0 0 721 547" fill="none" xmlns="http://www.w3.org/2000/svg">
<rect x="317" y="279" width="31" height="7" fill="#4EF07B"/>
<rect x="334.925" y="219.38" width="15.3317" height="24.5753" stroke="#F4F4F4" stroke-width="2"/>
<rect x="334.925" y="185.872" width="15.3317" height="24.5753" stroke="#F4F4F4" stroke-width="2"/>
<rect x="334.925" y="152.364" width="15.3317" height="24.5753" stroke="#F4F4F4" stroke-width="2"/>
<rect x="334.925" y="118.856" width="15.3317" height="24.5753" stroke="#F4F4F4" stroke-width="2"/>
<rect x="334.925" y="85.3477" width="15.3317" height="24.5753" stroke="#F4F4F4" stroke-width="2"/>
<rect x="334.925" y="51.8398" width="15.3317" height="24.5753" stroke="#F4F4F4" stroke-width="2"/>
<rect x="10.2436" y="219.38" width="15.3317" height="24.5753" stroke="#F4F4F4" stroke-width="2"/>
<rect x="10.2436" y="185.872" width="15.3317" height="24.5753" stroke="#F4F4F4" stroke-width="2"/>
<rect x="10.2436" y="152.364" width="15.3317" height="24.5753" stroke="#F4F4F4" stroke-width="2"/>
<rect x="10.2436" y="118.856" width="15.3317" height="24.5753" stroke="#F4F4F4" stroke-width="2"/>
<rect x="10.2436" y="85.3477" width="15.3317" height="24.5753" stroke="#F4F4F4" stroke-width="2"/>
<rect x="10.2436" y="51.8398" width="15.3317" height="24.5753" stroke="#F4F4F4" stroke-width="2"/>
<rect x="56.4615" y="247.111" width="247.577" height="19.9535" stroke="#F4F4F4" stroke-width="2"/>
<rect x="40.2853" y="19.4871" width="278.774" height="219.846" stroke="#F4F4F4" stroke-width="2"/>
<rect x="1" y="1" width="358.5" height="544.527" stroke="#F4F4F4" stroke-width="2"/>
<mask id="path-17-inside-1_205_2" fill="white">
<rect x="9.24359" y="276.152" width="39.2853" height="25.4199" rx="1"/>
</mask>
<rect x="9.24359" y="276.152" width="39.2853" height="25.4199" rx="1" stroke="#F4F4F4" stroke-width="4" mask="url(#path-17-inside-1_205_2)"/>
<mask id="path-18-inside-2_205_2" fill="white">
<rect x="94.7468" y="333.925" width="39.2853" height="25.4199" rx="1"/>
</mask>
<rect x="94.7468" y="333.925" width="39.2853" height="25.4199" rx="1" stroke="#F4F4F4" stroke-width="4" mask="url(#path-18-inside-2_205_2)"/>
<mask id="path-19-inside-3_205_2" fill="white">
<rect x="94.7468" y="276.152" width="39.2853" height="25.4199" rx="1"/>
</mask>
<rect x="94.7468" y="276.152" width="39.2853" height="25.4199" rx="1" stroke="#F4F4F4" stroke-width="4" mask="url(#path-19-inside-3_205_2)"/>
<path d="M138.498 277.152L175.784 277.152V300.572H138.498L138.498 277.152Z" stroke="#F4F4F4" stroke-width="2"/>
<mask id="path-21-inside-4_205_2" fill="white">
<rect x="180.25" y="305.039" width="39.2853" height="25.4199" rx="1"/>
</mask>
<rect x="180.25" y="305.039" width="39.2853" height="25.4199" rx="1" stroke="#F4F4F4" stroke-width="4" mask="url(#path-21-inside-4_205_2)"/>
<mask id="path-22-inside-5_205_2" fill="white">
<rect x="137.498" y="305.039" width="39.2853" height="25.4199" rx="1"/>
</mask>
<rect x="137.498" y="305.039" width="39.2853" height="25.4199" rx="1" stroke="#F4F4F4" stroke-width="4" mask="url(#path-22-inside-5_205_2)"/>
<mask id="path-23-inside-6_205_2" fill="white">
<rect x="51.9952" y="276.152" width="39.2853" height="25.4199" rx="1"/>
</mask>
<rect x="51.9952" y="276.152" width="39.2853" height="25.4199" rx="1" stroke="#F4F4F4" stroke-width="4" mask="url(#path-23-inside-6_205_2)"/>
<mask id="path-24-inside-7_205_2" fill="white">
<rect x="180.25" y="276.152" width="39.2853" height="25.4199" rx="1"/>
</mask>
<rect x="180.25" y="276.152" width="39.2853" height="25.4199" rx="1" stroke="#F4F4F4" stroke-width="4" mask="url(#path-24-inside-7_205_2)"/>
<mask id="path-25-inside-8_205_2" fill="white">
<rect x="9.24359" y="305.039" width="39.2853" height="25.4199" rx="1"/>
</mask>
<rect x="9.24359" y="305.039" width="39.2853" height="25.4199" rx="1" stroke="#F4F4F4" stroke-width="4" mask="url(#path-25-inside-8_205_2)"/>
<mask id="path-26-inside-9_205_2" fill="white">
<rect x="51.9952" y="305.039" width="39.2853" height="25.4199" rx="1"/>
</mask>
<rect x="51.9952" y="305.039" width="39.2853" height="25.4199" rx="1" stroke="#F4F4F4" stroke-width="4" mask="url(#path-26-inside-9_205_2)"/>
<mask id="path-27-inside-10_205_2" fill="white">
<rect x="94.7468" y="305.039" width="39.2853" height="25.4199" rx="1"/>
</mask>
<rect x="94.7468" y="305.039" width="39.2853" height="25.4199" rx="1" stroke="#F4F4F4" stroke-width="4" mask="url(#path-27-inside-10_205_2)"/>
<mask id="path-28-inside-11_205_2" fill="white">
<rect x="9.24359" y="333.925" width="39.2853" height="25.4199" rx="1"/>
</mask>
<rect x="9.24359" y="333.925" width="39.2853" height="25.4199" rx="1" stroke="#F4F4F4" stroke-width="4" mask="url(#path-28-inside-11_205_2)"/>
<mask id="path-29-inside-12_205_2" fill="white">
<rect x="51.9952" y="333.925" width="39.2853" height="25.4199" rx="1"/>
</mask>
<rect x="51.9952" y="333.925" width="39.2853" height="25.4199" rx="1" stroke="#F4F4F4" stroke-width="4" mask="url(#path-29-inside-12_205_2)"/>
<mask id="path-30-inside-13_205_2" fill="white">
<rect x="268.064" y="333.925" width="42.7516" height="27.7308" rx="1"/>
</mask>
<rect x="268.064" y="333.925" width="42.7516" height="27.7308" rx="1" stroke="#F4F4F4" stroke-width="4" mask="url(#path-30-inside-13_205_2)"/>
<mask id="path-31-inside-14_205_2" fill="white">
<rect x="310.816" y="333.925" width="42.7516" height="27.7308" rx="1"/>
</mask>
<rect x="310.816" y="333.925" width="42.7516" height="27.7308" rx="1" stroke="#F4F4F4" stroke-width="4" mask="url(#path-31-inside-14_205_2)"/>
<mask id="path-32-inside-15_205_2" fill="white">
<rect x="311" y="274" width="43" height="28" rx="1"/>
</mask>
<rect x="311" y="274" width="43" height="28" rx="1" stroke="#F4F4F4" stroke-width="4" mask="url(#path-32-inside-15_205_2)"/>
<g filter="url(#filter0_d_205_2)">
<rect x="678" y="279" width="31" height="7" fill="#4EF07B"/>
</g>
<rect x="695.425" y="219.38" width="15.3317" height="24.5753" stroke="#F4F4F4" stroke-width="2"/>
<rect x="695.425" y="185.872" width="15.3317" height="24.5753" stroke="#F4F4F4" stroke-width="2"/>
<rect x="695.425" y="152.364" width="15.3317" height="24.5753" stroke="#F4F4F4" stroke-width="2"/>
<rect x="695.425" y="118.856" width="15.3317" height="24.5753" stroke="#F4F4F4" stroke-width="2"/>
<rect x="695.425" y="85.3477" width="15.3317" height="24.5753" stroke="#F4F4F4" stroke-width="2"/>
<rect x="695.425" y="51.8398" width="15.3317" height="24.5753" stroke="#F4F4F4" stroke-width="2"/>
<rect x="370.744" y="219.38" width="15.3317" height="24.5753" stroke="#F4F4F4" stroke-width="2"/>
<rect x="370.744" y="185.872" width="15.3317" height="24.5753" stroke="#F4F4F4" stroke-width="2"/>
<rect x="370.744" y="152.364" width="15.3317" height="24.5753" stroke="#F4F4F4" stroke-width="2"/>
<rect x="370.744" y="118.856" width="15.3317" height="24.5753" stroke="#F4F4F4" stroke-width="2"/>
<rect x="370.744" y="85.3477" width="15.3317" height="24.5753" stroke="#F4F4F4" stroke-width="2"/>
<rect x="370.744" y="51.8398" width="15.3317" height="24.5753" stroke="#F4F4F4" stroke-width="2"/>
<rect x="416.962" y="247.111" width="247.577" height="19.9535" stroke="#F4F4F4" stroke-width="2"/>
<rect x="400.785" y="19.4871" width="278.774" height="219.846" stroke="#F4F4F4" stroke-width="2"/>
<rect x="361.5" y="1" width="358.5" height="544.527" stroke="#F4F4F4" stroke-width="2"/>
<mask id="path-49-inside-16_205_2" fill="white">
<rect x="369.744" y="276.152" width="39.2853" height="25.4199" rx="1"/>
</mask>
<rect x="369.744" y="276.152" width="39.2853" height="25.4199" rx="1" stroke="#F4F4F4" stroke-width="4" mask="url(#path-49-inside-16_205_2)"/>
<mask id="path-50-inside-17_205_2" fill="white">
<rect x="455.247" y="333.925" width="39.2853" height="25.4199" rx="1"/>
</mask>
<rect x="455.247" y="333.925" width="39.2853" height="25.4199" rx="1" stroke="#F4F4F4" stroke-width="4" mask="url(#path-50-inside-17_205_2)"/>
<mask id="path-51-inside-18_205_2" fill="white">
<rect x="455.247" y="276.152" width="39.2853" height="25.4199" rx="1"/>
</mask>
<rect x="455.247" y="276.152" width="39.2853" height="25.4199" rx="1" stroke="#F4F4F4" stroke-width="4" mask="url(#path-51-inside-18_205_2)"/>
<path d="M498.998 277.152L536.284 277.152V300.572H498.998L498.998 277.152Z" stroke="#F4F4F4" stroke-width="2"/>
<mask id="path-53-inside-19_205_2" fill="white">
<rect x="540.75" y="305.039" width="39.2853" height="25.4199" rx="1"/>
</mask>
<rect x="540.75" y="305.039" width="39.2853" height="25.4199" rx="1" stroke="#F4F4F4" stroke-width="4" mask="url(#path-53-inside-19_205_2)"/>
<mask id="path-54-inside-20_205_2" fill="white">
<rect x="497.998" y="305.039" width="39.2853" height="25.4199" rx="1"/>
</mask>
<rect x="497.998" y="305.039" width="39.2853" height="25.4199" rx="1" stroke="#F4F4F4" stroke-width="4" mask="url(#path-54-inside-20_205_2)"/>
<mask id="path-55-inside-21_205_2" fill="white">
<rect x="412.495" y="276.152" width="39.2853" height="25.4199" rx="1"/>
</mask>
<rect x="412.495" y="276.152" width="39.2853" height="25.4199" rx="1" stroke="#F4F4F4" stroke-width="4" mask="url(#path-55-inside-21_205_2)"/>
<mask id="path-56-inside-22_205_2" fill="white">
<rect x="540.75" y="276.152" width="39.2853" height="25.4199" rx="1"/>
</mask>
<rect x="540.75" y="276.152" width="39.2853" height="25.4199" rx="1" stroke="#F4F4F4" stroke-width="4" mask="url(#path-56-inside-22_205_2)"/>
<mask id="path-57-inside-23_205_2" fill="white">
<rect x="369.744" y="305.039" width="39.2853" height="25.4199" rx="1"/>
</mask>
<rect x="369.744" y="305.039" width="39.2853" height="25.4199" rx="1" stroke="#F4F4F4" stroke-width="4" mask="url(#path-57-inside-23_205_2)"/>
<mask id="path-58-inside-24_205_2" fill="white">
<rect x="412.495" y="305.039" width="39.2853" height="25.4199" rx="1"/>
</mask>
<rect x="412.495" y="305.039" width="39.2853" height="25.4199" rx="1" stroke="#F4F4F4" stroke-width="4" mask="url(#path-58-inside-24_205_2)"/>
<mask id="path-59-inside-25_205_2" fill="white">
<rect x="455.247" y="305.039" width="39.2853" height="25.4199" rx="1"/>
</mask>
<rect x="455.247" y="305.039" width="39.2853" height="25.4199" rx="1" stroke="#F4F4F4" stroke-width="4" mask="url(#path-59-inside-25_205_2)"/>
<mask id="path-60-inside-26_205_2" fill="white">
<rect x="369.744" y="333.925" width="39.2853" height="25.4199" rx="1"/>
</mask>
<rect x="369.744" y="333.925" width="39.2853" height="25.4199" rx="1" stroke="#F4F4F4" stroke-width="4" mask="url(#path-60-inside-26_205_2)"/>
<mask id="path-61-inside-27_205_2" fill="white">
<rect x="412.495" y="333.925" width="39.2853" height="25.4199" rx="1"/>
</mask>
<rect x="412.495" y="333.925" width="39.2853" height="25.4199" rx="1" stroke="#F4F4F4" stroke-width="4" mask="url(#path-61-inside-27_205_2)"/>
<mask id="path-62-inside-28_205_2" fill="white">
<rect x="628.564" y="333.925" width="42.7516" height="27.7308" rx="1"/>
</mask>
<rect x="628.564" y="333.925" width="42.7516" height="27.7308" rx="1" stroke="#F4F4F4" stroke-width="4" mask="url(#path-62-inside-28_205_2)"/>
<mask id="path-63-inside-29_205_2" fill="white">
<rect x="671.316" y="333.925" width="42.7516" height="27.7308" rx="1"/>
</mask>
<rect x="671.316" y="333.925" width="42.7516" height="27.7308" rx="1" stroke="#F4F4F4" stroke-width="4" mask="url(#path-63-inside-29_205_2)"/>
<mask id="path-64-inside-30_205_2" fill="white">
<rect x="672" y="274" width="43" height="28" rx="1"/>
</mask>
<rect x="672" y="274" width="43" height="28" rx="1" stroke="#F4F4F4" stroke-width="4" mask="url(#path-64-inside-30_205_2)"/>
<defs>
<filter id="filter0_d_205_2" x="674" y="279" width="39" height="15" filterUnits="userSpaceOnUse" color-interpolation-filters="sRGB">
<feFlood flood-opacity="0" result="BackgroundImageFix"/>
<feColorMatrix in="SourceAlpha" type="matrix" values="0 0 0 0 0 0 0 0 0 0 0 0 0 0 0 0 0 0 127 0" result="hardAlpha"/>
<feOffset dy="4"/>
<feGaussianBlur stdDeviation="2"/>
<feComposite in2="hardAlpha" operator="out"/>
<feColorMatrix type="matrix" values="0 0 0 0 0 0 0 0 0 0 0 0 0 0 0 0 0 0 0.25 0"/>
<feBlend mode="normal" in2="BackgroundImageFix" result="effect1_dropShadow_205_2"/>
<feBlend mode="normal" in="SourceGraphic" in2="effect1_dropShadow_205_2" result="shape"/>
</filter>
</defs>
</svg>
