<svg width="117" height="100" viewBox="0 0 117 100" fill="none" xmlns="http://www.w3.org/2000/svg">
<path d="M98.377 9.08061C90.7608 5.17197 82.7034 2.39472 74.4178 0.822266C73.3858 2.86881 72.18 5.62143 71.3484 7.81128C62.4151 6.33794 53.5639 6.33794 44.7949 7.81128C43.9638 5.62192 42.7307 2.86881 41.6892 0.822266C33.3955 2.39544 25.3312 5.17977 17.7114 9.10101C2.54858 34.2333 -1.56195 58.7406 0.493087 82.9011C10.5501 91.1385 20.2963 96.1427 29.8783 99.4173C32.2597 95.8253 34.3648 92.0225 36.1719 88.0481C32.7315 86.6115 29.4148 84.841 26.2614 82.7578C27.0912 82.0832 27.9016 81.3801 28.6911 80.6496C47.7998 90.4529 68.5626 90.4529 87.4435 80.6496C88.2365 81.3752 89.0466 82.0782 89.8728 82.7578C86.7143 84.8465 83.3915 86.6205 79.9442 88.0585C81.7615 92.0491 83.8628 95.8556 86.2377 99.4273C95.8288 96.1532 105.584 91.149 115.641 82.9011C118.053 54.8933 111.522 30.6104 98.377 9.08011V9.08061ZM38.7754 68.0429C33.0389 68.0429 28.3346 62.1689 28.3346 55.0162C28.3346 47.8635 32.9387 41.9796 38.7754 41.9796C44.6125 41.9796 49.3164 47.8531 49.2161 55.0162C49.2252 62.1689 44.6125 68.0429 38.7754 68.0429ZM77.3588 68.0429C71.6224 68.0429 66.9185 62.1689 66.9185 55.0162C66.9185 47.8635 71.5222 41.9796 77.3588 41.9796C83.196 41.9796 87.8999 47.8531 87.7996 55.0162C87.7996 62.1689 83.196 68.0429 77.3588 68.0429Z" fill="#3EB1FF"/>
</svg>
