<svg width="126" height="157" viewBox="0 0 126 157" fill="none" xmlns="http://www.w3.org/2000/svg">
<path d="M84.8038 2.03912L123.805 41.1204M31.0458 74.2946H94.759M31.0458 121.63H94.759M31.0458 97.9624H94.759M9.6128 2.03912C7.57601 2.09016 5.6398 2.93696 4.21747 4.39877C2.79514 5.86057 1.99936 7.82158 2 9.86321V147.176C1.99936 149.218 2.79514 151.179 4.21747 152.64C5.6398 154.102 7.57601 154.949 9.6128 155H116.192C118.263 155 120.249 154.176 121.713 152.708C123.177 151.241 124 149.251 124 147.176V41.1204H92.768C90.7312 41.0694 88.795 40.2226 87.3727 38.7608C85.9503 37.299 85.1546 35.338 85.1552 33.2963V2L9.6128 2.03912Z" stroke="#3EB1FF" stroke-width="4" stroke-linecap="round" stroke-linejoin="round"/>
</svg>
