<svg width="72" height="107" viewBox="0 0 72 107" fill="none" xmlns="http://www.w3.org/2000/svg">
<path fill-rule="evenodd" clip-rule="evenodd" d="M19.9545 0.603516C9.02266 0.603516 0.230752 9.68258 0.230752 20.8048C0.230752 27.5665 3.48304 33.5721 8.4821 37.2382C5.90564 39.149 3.81725 41.6308 2.38434 44.4846C0.951433 47.3384 0.213861 50.4848 0.230752 53.6716C0.230752 60.4378 3.48304 66.4389 8.4821 70.1051C5.90564 72.0159 3.81725 74.4977 2.38434 77.3515C0.951433 80.2053 0.213861 83.3517 0.230752 86.5385C0.230752 97.6607 9.02266 106.74 19.9545 106.74C30.8818 106.74 39.6782 97.6607 39.6782 86.5385V69.4594C43.133 72.3109 47.4878 73.8741 51.9859 73.8773C62.9177 73.8729 71.7096 64.7938 71.7096 53.6716C71.7276 50.4846 70.9905 47.3379 69.5575 44.4839C68.1245 41.6299 66.0355 39.1483 63.4583 37.2382C66.0348 35.3274 68.1232 32.8456 69.5561 29.9918C70.989 27.138 71.7265 23.9916 71.7096 20.8048C71.7096 9.68258 62.9177 0.603516 51.9859 0.603516H19.9545ZM7.64222 20.8048C7.64222 13.7688 13.1908 8.13477 19.9545 8.13477H32.2622V33.4748H19.9545C13.1908 33.4748 7.64222 27.8363 7.64222 20.8048ZM51.9859 33.4704H39.6782V8.13034H51.9859C58.7541 8.13034 64.2982 13.7688 64.2982 20.8048C64.2982 27.8363 58.7541 33.4704 51.9859 33.4704ZM7.64669 53.6716C7.64669 46.6401 13.1952 41.0016 19.9589 41.0016H32.2667V66.3416H19.9545C13.1863 66.3416 7.64222 60.7032 7.64222 53.6716H7.64669ZM39.6782 53.6716C39.6782 46.6401 45.2267 41.0016 51.9904 41.0016C58.7586 41.0016 64.3026 46.6357 64.3026 53.6716C64.3026 60.7032 58.7586 66.3416 51.9904 66.3416C45.2267 66.3416 39.6826 60.7076 39.6826 53.6716H39.6782ZM7.64669 86.5385C7.64669 79.507 13.1952 73.8729 19.9589 73.8729H32.2667V86.5385C32.2667 93.5744 26.7271 99.2085 19.9589 99.2085C13.1952 99.2085 7.64669 93.5744 7.64669 86.5385Z" fill="#3EB1FF"/>
</svg>
