<svg width="118" height="121" viewBox="0 0 118 121" fill="none" xmlns="http://www.w3.org/2000/svg">
<path d="M99.8651 93.602V94.1526L100.33 94.447L116.131 104.445V106.604L101.167 101.87L99.8651 101.458V102.823V113.741V114.329L100.379 114.615L105.965 117.723V118.943L98.0327 117.177L97.8153 117.129L97.598 117.177L89.666 118.943V117.723L95.252 114.613L95.7655 114.327V113.739V102.821V101.456L94.4638 101.868L79.5 106.603V104.445L95.3003 94.447L95.7655 94.1526V93.602V82.5066C95.7655 81.9609 95.982 81.4379 96.3666 81.0525C96.7511 80.6673 97.2723 80.4512 97.8153 80.4512C98.3584 80.4512 98.8796 80.6673 99.2641 81.0525C99.6487 81.4379 99.8651 81.9609 99.8651 82.5066V93.602Z" stroke="#FAFAFA" stroke-width="2"/>
<path fill-rule="evenodd" clip-rule="evenodd" d="M72.7939 44.2347L79.1232 50.4795C79.5116 50.8627 79.5116 51.484 79.1232 51.8672L72.7939 58.112C72.4055 58.4952 71.7758 58.4952 71.3874 58.112C70.999 57.7288 70.999 57.1075 71.3874 56.7243L76.0189 52.1546L63.6074 52.1546L63.6074 50.1921L76.0189 50.1921L71.3874 45.6224C70.999 45.2392 70.999 44.6179 71.3874 44.2347C71.7758 43.8515 72.4055 43.8515 72.7939 44.2347Z" fill="#3EB1FF"/>
<path fill-rule="evenodd" clip-rule="evenodd" d="M72.7939 44.2347L79.1232 50.4795C79.5116 50.8627 79.5116 51.484 79.1232 51.8672L72.7939 58.112C72.4055 58.4952 71.7758 58.4952 71.3874 58.112C70.999 57.7288 70.999 57.1075 71.3874 56.7243L76.0189 52.1546L63.6074 52.1546L63.6074 50.1921L76.0189 50.1921L71.3874 45.6224C70.999 45.2392 70.999 44.6179 71.3874 44.2347C71.7758 43.8515 72.4055 43.8515 72.7939 44.2347Z" fill="#3EB1FF"/>
<path fill-rule="evenodd" clip-rule="evenodd" d="M33.0385 15.4075L26.3477 8.77242C25.9371 8.36526 25.9371 7.70512 26.3477 7.29796L33.0385 0.662864C33.4491 0.255701 34.1148 0.255701 34.5254 0.662864C34.936 1.07003 34.936 1.73017 34.5254 2.13733L29.6293 6.99259L42.75 6.99259L42.75 9.0778L29.6293 9.0778L34.5254 13.9331C34.936 14.3402 34.936 15.0004 34.5254 15.4075C34.1148 15.8147 33.4491 15.8147 33.0385 15.4075Z" fill="#3EB1FF"/>
<path fill-rule="evenodd" clip-rule="evenodd" d="M33.0385 15.4075L26.3477 8.77242C25.9371 8.36526 25.9371 7.70512 26.3477 7.29796L33.0385 0.662864C33.4491 0.255701 34.1148 0.255701 34.5254 0.662864C34.936 1.07003 34.936 1.73017 34.5254 2.13733L29.6293 6.99259L42.75 6.99259L42.75 9.0778L29.6293 9.0778L34.5254 13.9331C34.936 14.3402 34.936 15.0004 34.5254 15.4075C34.1148 15.8147 33.4491 15.8147 33.0385 15.4075Z" fill="#3EB1FF"/>
<rect x="2.67969" y="7.16602" width="97.6125" height="44.4645" rx="22.2323" stroke="#3EB1FF" stroke-width="4"/>
<rect x="99" y="27" width="3" height="47" rx="1.5" fill="#3EB1FF"/>
</svg>
