<svg width="265" height="310" viewBox="0 0 265 310" fill="none" xmlns="http://www.w3.org/2000/svg">
<path d="M227.59 250.318V250.869L228.056 251.164L263.655 273.649V280.75L228.891 269.773L227.59 269.362V270.727V294.89V295.479L228.104 295.765L241.114 302.989V307.917L222.044 303.679L221.828 303.631L221.611 303.679L202.541 307.917V302.989L215.551 295.76L216.065 295.474V294.886V270.722V269.358L214.764 269.769L180 280.75V273.649L215.599 251.164L216.065 250.869V250.318V225.762C216.065 224.234 216.672 222.768 217.753 221.688C218.834 220.607 220.299 220 221.828 220C223.356 220 224.821 220.607 225.902 221.688C226.983 222.768 227.59 224.234 227.59 225.762V250.318Z" stroke="#FAFAFA" stroke-width="2"/>
<path fill-rule="evenodd" clip-rule="evenodd" d="M161.341 103.636L175.355 117.464C176.215 118.312 176.215 119.688 175.355 120.536L161.341 134.364C160.481 135.212 159.087 135.212 158.227 134.364C157.367 133.515 157.367 132.139 158.227 131.291L168.481 121.173L141 121.173L141 116.827L168.481 116.827L158.227 106.709C157.367 105.861 157.367 104.485 158.227 103.636C159.087 102.788 160.481 102.788 161.341 103.636Z" fill="#3EB1FF"/>
<path fill-rule="evenodd" clip-rule="evenodd" d="M161.341 103.636L175.355 117.464C176.215 118.312 176.215 119.688 175.355 120.536L161.341 134.364C160.481 135.212 159.087 135.212 158.227 134.364C157.367 133.515 157.367 132.139 158.227 131.291L168.481 121.173L141 121.173L141 116.827L168.481 116.827L158.227 106.709C157.367 105.861 157.367 104.485 158.227 103.636C159.087 102.788 160.481 102.788 161.341 103.636Z" fill="#3EB1FF"/>
<path fill-rule="evenodd" clip-rule="evenodd" d="M67.4969 33.3238L52.6818 18.6324C51.7727 17.7308 51.7727 16.2692 52.6818 15.3676L67.4969 0.676161C68.406 -0.225382 69.88 -0.225382 70.7891 0.676161C71.6982 1.5777 71.6982 3.03939 70.7891 3.94093L59.9481 14.6915L89 14.6915L89 19.3085L59.9481 19.3085L70.7891 30.0591C71.6982 30.9606 71.6982 32.4223 70.7891 33.3238C69.88 34.2254 68.406 34.2254 67.4969 33.3238Z" fill="#3EB1FF"/>
<path fill-rule="evenodd" clip-rule="evenodd" d="M67.4969 33.3238L52.6818 18.6324C51.7727 17.7308 51.7727 16.2692 52.6818 15.3676L67.4969 0.676161C68.406 -0.225382 69.88 -0.225382 70.7891 0.676161C71.6982 1.5777 71.6982 3.03939 70.7891 3.94093L59.9481 14.6915L89 14.6915L89 19.3085L59.9481 19.3085L70.7891 30.0591C71.6982 30.9606 71.6982 32.4223 70.7891 33.3238C69.88 34.2254 68.406 34.2254 67.4969 33.3238Z" fill="#3EB1FF"/>
<rect x="2.5" y="16.7544" width="219.991" height="102.31" rx="7.5" stroke="#3EB1FF" stroke-width="5"/>
<rect x="220" y="109" width="5" height="105" rx="2.5" fill="#3EB1FF"/>
</svg>
