<svg width="789" height="159" viewBox="0 0 789 159" fill="none" xmlns="http://www.w3.org/2000/svg">
<path d="M61.0749 119.637L60.5238 119.637L60.2294 120.103L36.8807 157.069L29.4382 157.069L40.8466 120.938L41.2574 119.637L39.893 119.637L14.8134 119.637L14.2249 119.637L13.9392 120.152L6.42964 133.674L1.24624 133.674L5.65483 113.836L5.70303 113.619L5.65483 113.402L1.24624 93.5631L6.42981 93.5631L13.944 107.086L14.2297 107.6L14.8181 107.6L39.8976 107.6L41.2622 107.6L40.8512 106.299L29.4383 70.168L36.8807 70.168L60.2294 107.134L60.5238 107.6L61.0749 107.6L86.5615 107.6C88.1578 107.6 89.6886 108.234 90.8173 109.363C91.946 110.492 92.5801 112.022 92.5801 113.619C92.5801 115.215 91.946 116.746 90.8173 117.874C89.6886 119.003 88.1578 119.637 86.5615 119.637L61.0749 119.637Z" stroke="#FAFAFA" stroke-width="2"/>
<path fill-rule="evenodd" clip-rule="evenodd" d="M522.457 115.018C522.457 116.296 521.421 117.332 520.143 117.332H97.5353C96.257 117.332 95.2207 116.296 95.2207 115.018C95.2207 113.739 96.257 112.703 97.5353 112.703H520.143C521.421 112.703 522.457 113.739 522.457 115.018Z" fill="#FAFAFA"/>
<path d="M97.5039 113.702L772.788 13.0786" stroke="#3EB1FF" stroke-width="5" stroke-linecap="round" stroke-dasharray="3 12"/>
<path fill-rule="evenodd" clip-rule="evenodd" d="M520.004 99.3247C519.753 99.3234 519.616 99.4868 519.577 99.678L515.883 111.576C511.715 112.753 507.543 113.925 503.382 115.113C503.166 115.175 503.048 115.298 503.049 115.517C503.05 115.736 503.251 115.867 503.438 115.922L515.871 119.438C517.109 123.43 518.341 127.426 519.589 131.411C519.654 131.618 519.783 131.73 520.013 131.73C520.242 131.729 520.379 131.537 520.436 131.359L524.132 119.45L536.621 115.918C536.87 115.841 536.996 115.749 536.997 115.509C536.999 115.27 536.827 115.138 536.627 115.102L524.12 111.564L520.433 99.6835C520.352 99.4465 520.255 99.326 520.004 99.325V99.3247ZM520.004 103.985L522.499 112.022C522.579 112.28 522.725 112.515 522.925 112.705C523.124 112.895 523.37 113.035 523.64 113.112L532.114 115.509L523.652 117.902C523.382 117.978 523.136 118.118 522.937 118.309C522.737 118.499 522.591 118.734 522.511 118.992L520.004 127.066C519.167 124.372 518.33 121.678 517.493 118.979C517.413 118.721 517.266 118.486 517.067 118.296C516.868 118.105 516.622 117.966 516.352 117.889L507.935 115.509C510.744 114.714 513.551 113.919 516.364 113.124C516.634 113.048 516.88 112.908 517.08 112.718C517.279 112.527 517.426 112.292 517.506 112.034L520.004 103.985Z" fill="#FAFAFA"/>
<path fill-rule="evenodd" clip-rule="evenodd" d="M775.488 6.11265e-06C775.296 -0.00103191 775.19 0.130278 775.16 0.283905L772.327 9.84459C769.13 10.7907 765.93 11.7327 762.738 12.6869C762.572 12.7368 762.482 12.8359 762.482 13.0118C762.483 13.1875 762.637 13.2926 762.781 13.3367L772.318 16.1622C773.267 19.3705 774.212 22.5814 775.169 25.7839C775.219 25.95 775.318 26.0403 775.494 26.0398C775.67 26.0393 775.775 25.8849 775.819 25.7416L778.654 16.1724L788.234 13.3342C788.425 13.2721 788.521 13.1982 788.522 13.0056C788.523 12.8131 788.392 12.7074 788.239 12.6779L778.645 9.83499L775.817 0.288316C775.755 0.0978395 775.681 0.00104413 775.488 0.000265618V6.11265e-06ZM775.488 3.74518L777.402 10.2032C777.463 10.4105 777.575 10.5992 777.728 10.7521C777.881 10.9051 778.07 11.0173 778.277 11.0788L784.777 13.0051L778.286 14.928C778.079 14.9895 777.89 15.1019 777.737 15.2549C777.584 15.4079 777.472 15.5967 777.411 15.8041L775.488 22.2925C774.846 20.1272 774.204 17.9624 773.562 15.7937C773.5 15.5864 773.388 15.3976 773.235 15.2447C773.082 15.0917 772.894 14.9794 772.686 14.9179L766.23 13.0054C768.385 12.3662 770.538 11.7273 772.696 11.0889C772.903 11.0275 773.092 10.9152 773.245 10.7623C773.398 10.6093 773.51 10.4205 773.571 10.2131L775.488 3.74518Z" fill="#FAFAFA"/>
<path d="M523.154 113.9L777.37 12" stroke="#FAFAFA" stroke-width="4" stroke-linecap="round"/>
</svg>
