<svg width="439" height="88" viewBox="0 0 439 88" fill="none" xmlns="http://www.w3.org/2000/svg">
<path d="M33.9378 67.3684L20.8 88L15.6 88L22.1676 67.3684L8.2316 67.3684L3.9 75.1053L-1.57821e-06 75.1053L2.6 63.5L-5.63647e-07 51.8947L3.9 51.8947L8.2342 59.6316L22.1702 59.6316L15.6 39L20.8 39L33.9378 59.6316L48.1 59.6316C49.1343 59.6316 50.1263 60.0391 50.8577 60.7646C51.5891 61.4901 52 62.474 52 63.5C52 64.526 51.5891 65.5099 50.8577 66.2354C50.1263 66.9609 49.1343 67.3684 48.1 67.3684L33.9378 67.3684Z" fill="#F4F4F4"/>
<path fill-rule="evenodd" clip-rule="evenodd" d="M291 65H52V63H291V65Z" fill="#0761E2"/>
<line x1="51.8527" y1="63.033" x2="431.326" y2="5.97616" stroke="#00D8FF" stroke-width="3" stroke-dasharray="6 6"/>
<path fill-rule="evenodd" clip-rule="evenodd" d="M431.831 7.94307L291 64.9999L290.196 63.0154L431.027 5.95851L431.831 7.94307Z" fill="#0761E2"/>
<path fill-rule="evenodd" clip-rule="evenodd" d="M290.992 57C290.881 56.9994 290.82 57.07 290.803 57.1526L289.171 62.2928C287.329 62.8015 285.486 63.308 283.647 63.821C283.552 63.8478 283.5 63.9011 283.5 63.9957C283.5 64.0901 283.589 64.1466 283.672 64.1704L289.165 65.6894C289.713 67.4143 290.257 69.1406 290.808 70.8624C290.837 70.9517 290.894 71.0003 290.995 71C291.097 70.9997 291.157 70.9167 291.183 70.8397L292.816 65.6949L298.334 64.169C298.444 64.1356 298.5 64.0959 298.5 63.9923C298.501 63.8888 298.425 63.832 298.337 63.8161L292.811 62.2877L291.181 57.155C291.145 57.0526 291.103 57.0006 290.992 57.0001V57ZM290.992 59.0136L292.094 62.4857C292.129 62.5971 292.194 62.6986 292.282 62.7808C292.37 62.863 292.479 62.9233 292.598 62.9564L296.342 63.992L292.604 65.0259C292.484 65.059 292.375 65.1194 292.287 65.2016C292.199 65.2839 292.135 65.3854 292.099 65.4969L290.992 68.9853C290.622 67.8212 290.252 66.6573 289.882 65.4913C289.847 65.3798 289.782 65.2784 289.694 65.1961C289.606 65.1139 289.497 65.0535 289.378 65.0205L285.659 63.9922C286.9 63.6486 288.141 63.3051 289.383 62.9618C289.503 62.9288 289.611 62.8684 289.7 62.7862C289.788 62.704 289.852 62.6025 289.888 62.491L290.992 59.0136Z" fill="#F4F4F4"/>
<path fill-rule="evenodd" clip-rule="evenodd" d="M431.492 3.2864e-06C431.381 -0.000554794 431.32 0.0700423 431.303 0.152638L429.671 5.29283C427.829 5.80152 425.986 6.30798 424.147 6.821C424.052 6.84778 424 6.90108 424 6.99568C424 7.09013 424.089 7.14664 424.172 7.17035L429.665 8.68945C430.213 10.4143 430.757 12.1406 431.308 13.8624C431.337 13.9517 431.394 14.0003 431.495 14C431.597 13.9997 431.657 13.9167 431.683 13.8397L433.316 8.69489L438.834 7.16896C438.944 7.13561 439 7.09585 439 6.99233C439.001 6.8888 438.925 6.83202 438.837 6.81611L433.311 5.28767L431.681 0.15501C431.645 0.0526023 431.603 0.000561367 431.492 0.000142807V3.2864e-06ZM431.492 2.01356L432.594 5.48565C432.629 5.59711 432.694 5.69856 432.782 5.78077C432.87 5.86298 432.979 5.92335 433.098 5.95639L436.842 6.99205L433.104 8.02589C432.984 8.05896 432.875 8.11937 432.787 8.20163C432.699 8.2839 432.635 8.3854 432.599 8.49691L431.492 11.9853C431.122 10.8212 430.752 9.6573 430.382 8.49133C430.347 8.37984 430.282 8.27837 430.194 8.19613C430.106 8.1139 429.997 8.0535 429.878 8.02045L426.159 6.99219C427.4 6.64855 428.641 6.30505 429.883 5.96183C430.003 5.92882 430.111 5.86845 430.2 5.78621C430.288 5.70397 430.352 5.60247 430.388 5.49095L431.492 2.01356Z" fill="#F4F4F4"/>
</svg>
