<svg width="73" height="74" viewBox="0 0 73 74" fill="none" xmlns="http://www.w3.org/2000/svg">
<path d="M50.4371 14.4193L49.0313 13.0529C48.8858 12.9116 48.6556 12.9116 48.5102 13.0529L23.1446 37.6943C16.2851 44.3611 16.2851 55.1741 23.1446 61.8409C23.29 61.9822 23.5203 61.9822 23.6657 61.8409L50.4371 35.8214C56.521 29.9084 56.521 20.3205 50.4371 14.4075V14.4193Z" fill="#FAFAFA"/>
<path d="M36.5 73.9469C16.3681 73.9469 0 57.567 0 37.4469C0 17.3268 16.3681 0.946899 36.5 0.946899C56.6319 0.946899 73 17.315 73 37.4469C73 57.5788 56.6319 73.9469 36.5 73.9469ZM36.5 7.66534C20.0732 7.66534 6.71844 21.0319 6.71844 37.4469C6.71844 53.8619 20.085 67.2285 36.5 67.2285C52.915 67.2285 66.2816 53.8619 66.2816 37.4469C66.2816 21.0319 52.9268 7.65361 36.5 7.65361V7.66534Z" fill="white"/>
</svg>
