<svg width="150" height="102" viewBox="0 0 150 102" fill="none" xmlns="http://www.w3.org/2000/svg">
<path d="M73.9967 80.1133L73.9967 37.5222C73.9967 28.1736 67.156 24.0746 56.2891 15.2434" stroke="#FB007B"/>
<path fill-rule="evenodd" clip-rule="evenodd" d="M72.2084 35.2617C72.1543 35.2614 72.1246 35.2984 72.1163 35.3416L71.3204 38.0325C70.4221 38.2988 69.5232 38.5639 68.6266 38.8325C68.5799 38.8465 68.5545 38.8744 68.5547 38.9239C68.5548 38.9734 68.5982 39.003 68.6385 39.0154L71.3177 39.8106C71.5845 40.7136 71.8499 41.6173 72.1189 42.5187C72.1329 42.5654 72.1607 42.5908 72.2102 42.5907C72.2595 42.5905 72.289 42.5471 72.3014 42.5067L73.0979 39.8135L75.7891 39.0146C75.8427 38.9972 75.8698 38.9764 75.8701 38.9222C75.8704 38.868 75.8335 38.8383 75.7904 38.8299L73.0953 38.0298L72.3007 35.3429C72.2833 35.2893 72.2625 35.262 72.2084 35.2618V35.2617ZM72.2084 36.3158L72.7459 38.1334C72.7632 38.1918 72.7947 38.2449 72.8376 38.2879C72.8806 38.331 72.9336 38.3626 72.9918 38.3799L74.8178 38.922L72.9944 39.4632C72.9362 39.4806 72.8832 39.5122 72.8402 39.5552C72.7973 39.5983 72.7658 39.6514 72.7485 39.7098L72.2084 41.536C72.028 40.9266 71.8475 40.3173 71.6672 39.7069C71.6499 39.6485 71.6184 39.5954 71.5755 39.5524C71.5325 39.5093 71.4795 39.4777 71.4213 39.4604L69.6076 38.9221C70.2128 38.7422 70.8178 38.5624 71.4239 38.3827C71.4822 38.3654 71.5352 38.3338 71.5782 38.2908C71.6211 38.2477 71.6527 38.1946 71.6699 38.1362L72.2084 36.3158Z" fill="#FB007B"/>
<path fill-rule="evenodd" clip-rule="evenodd" d="M148.141 1.30626H2.07368C1.49946 1.30626 1.03398 1.72109 1.03398 2.2328V99.9656C1.03398 100.477 1.49947 100.892 2.07368 100.892H148.141C148.715 100.892 149.181 100.477 149.181 99.9656V2.2328C149.181 1.72109 148.715 1.30626 148.141 1.30626ZM2.07368 0.705078C1.12689 0.705078 0.359375 1.38906 0.359375 2.2328V99.9656C0.359375 100.809 1.1269 101.493 2.07368 101.493H148.141C149.088 101.493 149.856 100.809 149.856 99.9656V2.2328C149.856 1.38906 149.088 0.705078 148.141 0.705078H2.07368Z" fill="#FAFAFA"/>
<path fill-rule="evenodd" clip-rule="evenodd" d="M73.6903 81.4522L73.6903 13.3398L74.2617 13.3398L74.2617 81.4522L73.6903 81.4522Z" fill="#FAFAFA"/>
<path fill-rule="evenodd" clip-rule="evenodd" d="M73.9777 80.5586L72.0078 85.4783H75.9475L73.9777 80.5586ZM73.9777 81.3162L72.4131 85.2237H75.5422L73.9777 81.3162Z" fill="#FAFAFA"/>
<path fill-rule="evenodd" clip-rule="evenodd" d="M6.98276 53.1098L6.05876 52.7401L6.17578 52.5078L7.09978 52.8775L6.98276 53.1098Z" fill="#FAFAFA"/>
<path fill-rule="evenodd" clip-rule="evenodd" d="M13.5533 42.9573L12.689 42.4868L12.8379 42.2695L13.7023 42.74L13.5533 42.9573Z" fill="#FAFAFA"/>
<path fill-rule="evenodd" clip-rule="evenodd" d="M42.8261 20.6194L42.3534 19.8218L42.6055 19.7031L43.0782 20.5007L42.8261 20.6194Z" fill="#FAFAFA"/>
<path fill-rule="evenodd" clip-rule="evenodd" d="M54.7224 16.3339L54.441 15.4671L54.7148 15.3965L54.9962 16.2633L54.7224 16.3339Z" fill="#FAFAFA"/>
<path fill-rule="evenodd" clip-rule="evenodd" d="M67.224 14.397L67.1898 13.4949L67.4746 13.4863L67.5088 14.3884L67.224 14.397Z" fill="#FAFAFA"/>
<path fill-rule="evenodd" clip-rule="evenodd" d="M80.0402 14.2428L80.0824 13.341L80.3672 13.3516L80.3249 14.2534L80.0402 14.2428Z" fill="#FAFAFA"/>
<path fill-rule="evenodd" clip-rule="evenodd" d="M93.0308 15.3765L92.7632 16.2468L92.4883 16.1797L92.7559 15.3093L93.0308 15.3765Z" fill="#FAFAFA"/>
<path fill-rule="evenodd" clip-rule="evenodd" d="M105.097 19.3127L104.673 20.1319L104.414 20.0254L104.838 19.2063L105.097 19.3127Z" fill="#FAFAFA"/>
<path fill-rule="evenodd" clip-rule="evenodd" d="M116.369 25.1484L115.75 25.8627L115.523 25.707L116.143 24.9927L116.369 25.1484Z" fill="#FAFAFA"/>
<path fill-rule="evenodd" clip-rule="evenodd" d="M126.467 32.432L125.737 33.0583L125.539 32.875L126.268 32.2487L126.467 32.432Z" fill="#FAFAFA"/>
<path fill-rule="evenodd" clip-rule="evenodd" d="M134.671 41.5569L133.811 42.0328L133.66 41.8164L134.521 41.3405L134.671 41.5569Z" fill="#FAFAFA"/>
<path fill-rule="evenodd" clip-rule="evenodd" d="M141.13 51.7659L140.218 52.1572L140.094 51.9277L141.006 51.5364L141.13 51.7659Z" fill="#FAFAFA"/>
<path fill-rule="evenodd" clip-rule="evenodd" d="M31.8177 26.4384L31.1899 25.7301L31.4141 25.5723L32.0419 26.2805L31.8177 26.4384Z" fill="#FAFAFA"/>
<path fill-rule="evenodd" clip-rule="evenodd" d="M21.8662 33.9928L21.0987 33.4039L21.2852 33.2109L22.0527 33.7999L21.8662 33.9928Z" fill="#FAFAFA"/>
<path fill-rule="evenodd" clip-rule="evenodd" d="M10.5912 48.1953L9.25571 47.5458L9.39258 47.3223L10.7281 47.9718L10.5912 48.1953Z" fill="#FAFAFA"/>
<path fill-rule="evenodd" clip-rule="evenodd" d="M26.9129 30.3266L25.8568 29.3506L26.0625 29.1738L27.1186 30.1498L26.9129 30.3266Z" fill="#FAFAFA"/>
<path fill-rule="evenodd" clip-rule="evenodd" d="M138.139 46.4803L136.823 47.1616L136.68 46.9414L137.995 46.2602L138.139 46.4803Z" fill="#FAFAFA"/>
<path fill-rule="evenodd" clip-rule="evenodd" d="M130.821 36.8484L129.613 37.6728L129.439 37.4707L130.647 36.6463L130.821 36.8484Z" fill="#FAFAFA"/>
<path fill-rule="evenodd" clip-rule="evenodd" d="M121.58 28.4948L120.636 29.5583L120.412 29.4004L121.356 28.3369L121.58 28.4948Z" fill="#FAFAFA"/>
<path fill-rule="evenodd" clip-rule="evenodd" d="M110.812 22.0255L110.006 23.1758L109.764 23.041L110.569 21.8907L110.812 22.0255Z" fill="#FAFAFA"/>
<path fill-rule="evenodd" clip-rule="evenodd" d="M98.4024 18.1916L98.8881 16.9072L99.1582 16.9883L98.6725 18.2728L98.4024 18.1916Z" fill="#FAFAFA"/>
<path fill-rule="evenodd" clip-rule="evenodd" d="M86.2373 15.3759L86.317 14.0219L86.6016 14.0352L86.5219 15.3891L86.2373 15.3759Z" fill="#FAFAFA"/>
<path fill-rule="evenodd" clip-rule="evenodd" d="M61.0846 15.6234L60.819 14.2885L61.0996 14.2441L61.3652 15.5791L61.0846 15.6234Z" fill="#FAFAFA"/>
<path fill-rule="evenodd" clip-rule="evenodd" d="M48.7681 18.6018L48.2679 17.3218L48.5371 17.2383L49.0373 18.5183L48.7681 18.6018Z" fill="#FAFAFA"/>
<path fill-rule="evenodd" clip-rule="evenodd" d="M37.4408 23.7163L36.6294 22.5694L36.8711 22.4336L37.6825 23.5805L37.4408 23.7163Z" fill="#FAFAFA"/>
<path fill-rule="evenodd" clip-rule="evenodd" d="M17.8414 38.6667L16.6409 37.8337L16.8164 37.6328L18.0169 38.4658L17.8414 38.6667Z" fill="#FAFAFA"/>
<path fill-rule="evenodd" clip-rule="evenodd" d="M27.7021 6.364H18.6549V12.3605H27.7021V6.364ZM18.3691 6.10938V12.6152H27.9878V6.10938H18.3691Z" fill="#FAFAFA"/>
<path fill-rule="evenodd" clip-rule="evenodd" d="M69.8912 10.8887V6.61133H69.6055V11.1433H78.3469V6.61133H78.0612V10.8887H69.8912Z" fill="#FAFAFA"/>
<path fill-rule="evenodd" clip-rule="evenodd" d="M74.0484 13.5952C58.8527 13.5758 44.0196 17.7312 31.5695 25.4954C19.1194 33.2596 9.65756 44.2551 4.47269 56.9843L3.93555 56.8106C9.16051 43.9829 18.6955 32.9024 31.2419 25.0781C43.7883 17.2539 58.736 13.0664 74.0493 13.086C89.3625 13.1056 104.297 17.3313 116.818 25.1875C129.339 33.0437 138.838 44.1486 144.022 56.9896L143.484 57.162C138.34 44.4195 128.914 33.3998 116.489 25.6039C104.064 17.8079 89.2442 13.6147 74.0484 13.5952Z" fill="#FAFAFA"/>
<path fill-rule="evenodd" clip-rule="evenodd" d="M34.1387 42.2031C44.7794 32.5094 59.2126 27.0625 74.2636 27.0625C89.3146 27.0625 103.748 32.5094 114.389 42.2031C125.029 51.8967 131.006 65.0427 131.006 78.7491H130.434C130.434 65.1742 124.515 52.1564 113.98 42.5592C103.445 32.9622 89.1589 27.5717 74.2636 27.5717C59.3683 27.5717 45.0817 32.9622 34.5471 42.5592C24.0124 52.1564 18.0929 65.1742 18.0929 78.7491H17.5215C17.5215 65.0427 23.4982 51.8967 34.1387 42.2031Z" fill="#FAFAFA"/>
<path fill-rule="evenodd" clip-rule="evenodd" d="M34.1387 42.2031C44.7794 32.5094 59.2126 27.0625 74.2636 27.0625C89.3146 27.0625 103.748 32.5094 114.389 42.2031C125.029 51.8967 131.006 65.0427 131.006 78.7491H130.434C130.434 65.1742 124.515 52.1564 113.98 42.5592C103.445 32.9622 89.1589 27.5717 74.2636 27.5717C59.3683 27.5717 45.0817 32.9622 34.5471 42.5592C24.0124 52.1564 18.0929 65.1742 18.0929 78.7491H17.5215C17.5215 65.0427 23.4982 51.8967 34.1387 42.2031Z" fill="#FAFAFA"/>
<path fill-rule="evenodd" clip-rule="evenodd" d="M47.6174 54.4835C54.6829 48.0468 64.2671 44.4297 74.262 44.4297C84.2569 44.4297 93.8412 48.0468 100.907 54.4835C107.972 60.92 111.94 69.6486 111.94 78.7488H111.369C111.369 69.7801 107.458 61.1798 100.498 54.8396C93.5388 48.4996 84.1013 44.9389 74.262 44.9389C64.4228 44.9389 54.9853 48.4996 48.0259 54.8396C41.0664 61.1798 37.1554 69.7801 37.1554 78.7488H36.584C36.584 69.6486 40.5521 60.92 47.6174 54.4835Z" fill="#FAFAFA"/>
<path fill-rule="evenodd" clip-rule="evenodd" d="M47.6174 54.4835C54.6829 48.0468 64.2671 44.4297 74.262 44.4297C84.2569 44.4297 93.8412 48.0468 100.907 54.4835C107.972 60.92 111.94 69.6486 111.94 78.7488H111.369C111.369 69.7801 107.458 61.1798 100.498 54.8396C93.5388 48.4996 84.1013 44.9389 74.262 44.9389C64.4228 44.9389 54.9853 48.4996 48.0259 54.8396C41.0664 61.1798 37.1554 69.7801 37.1554 78.7488H36.584C36.584 69.6486 40.5521 60.92 47.6174 54.4835Z" fill="#FAFAFA"/>
<path fill-rule="evenodd" clip-rule="evenodd" d="M60.2217 66.227C63.8687 62.9047 68.8164 61.0371 73.9767 61.0371C79.137 61.0371 84.0847 62.9047 87.7317 66.227C91.3784 69.5492 93.4261 74.0539 93.4261 78.7499H92.8546C92.8546 74.1854 90.8642 69.809 87.3232 66.5832C83.7824 63.3575 78.9814 61.5464 73.9767 61.5464C68.972 61.5464 64.171 63.3575 60.6302 66.5831C57.0892 69.809 55.0988 74.1854 55.0988 78.7499H54.5273C54.5273 74.0539 56.575 69.5492 60.2217 66.227Z" fill="#FAFAFA"/>
<path fill-rule="evenodd" clip-rule="evenodd" d="M60.2217 66.227C63.8687 62.9047 68.8164 61.0371 73.9767 61.0371C79.137 61.0371 84.0847 62.9047 87.7317 66.227C91.3784 69.5492 93.4261 74.0539 93.4261 78.7499H92.8546C92.8546 74.1854 90.8642 69.809 87.3232 66.5832C83.7824 63.3575 78.9814 61.5464 73.9767 61.5464C68.972 61.5464 64.171 63.3575 60.6302 66.5831C57.0892 69.809 55.0988 74.1854 55.0988 78.7499H54.5273C54.5273 74.0539 56.575 69.5492 60.2217 66.227Z" fill="#FAFAFA"/>
</svg>
