<svg width="491" height="272" viewBox="0 0 491 272" fill="none" xmlns="http://www.w3.org/2000/svg">
<g clip-path="url(#clip0_591_634)">
<path fill-rule="evenodd" clip-rule="evenodd" d="M49.4308 116.657L16.6032 109.37C10.7672 108.074 5.71727 113.582 7.51329 119.284L17.6159 151.357C19.4119 157.059 26.7069 158.678 30.7469 154.272L53.4718 129.486C57.5118 125.08 55.2668 117.953 49.4308 116.657ZM16.6918 108.97C10.5487 107.607 5.2329 113.405 7.12345 119.407L17.2261 151.48C19.1166 157.482 26.7956 159.186 31.0482 154.548L53.7731 129.762C58.0257 125.124 55.6625 117.622 49.5193 116.258L16.6918 108.97Z" fill="#26A0FB"/>
<path fill-rule="evenodd" clip-rule="evenodd" d="M188.751 86.6665L197.455 119.147C199.002 124.922 206.22 126.856 210.447 122.629L234.225 98.8511C238.452 94.6239 236.518 87.406 230.743 85.8587L198.263 77.1555C192.488 75.6083 187.204 80.8922 188.751 86.6665ZM197.06 119.253C198.689 125.331 206.286 127.367 210.736 122.918L234.514 99.1401C238.963 94.6905 236.928 87.0926 230.849 85.4639L198.368 76.7607C192.29 75.132 186.728 80.694 188.357 86.7723L197.06 119.253Z" fill="#26A0FB"/>
<path fill-rule="evenodd" clip-rule="evenodd" d="M256.06 48.024L264.763 80.5048C266.311 86.2792 273.529 88.2133 277.756 83.9861L301.533 60.2085C305.76 55.9813 303.826 48.7634 298.052 47.2161L265.571 38.5129C259.797 36.9657 254.513 42.2496 256.06 48.024ZM264.369 80.6106C265.997 86.6889 273.595 88.7248 278.045 84.2751L301.822 60.4975C306.272 56.0479 304.236 48.45 298.158 46.8213L265.677 38.1181C259.599 36.4894 254.037 42.0515 255.665 48.1297L264.369 80.6106Z" fill="#26A0FB"/>
<path fill-rule="evenodd" clip-rule="evenodd" d="M297.06 102.024L305.763 134.505C307.311 140.279 314.529 142.213 318.756 137.986L342.533 114.208C346.76 109.981 344.826 102.763 339.052 101.216L306.571 92.5129C300.797 90.9657 295.513 96.2496 297.06 102.024ZM305.369 134.611C306.997 140.689 314.595 142.725 319.045 138.275L342.822 114.497C347.272 110.048 345.236 102.45 339.158 100.821L306.677 92.1181C300.599 90.4894 295.037 96.0515 296.665 102.13L305.369 134.611Z" fill="#26A0FB"/>
<path fill-rule="evenodd" clip-rule="evenodd" d="M376.764 164.584L357.474 192.128C354.045 197.025 357.203 203.797 363.158 204.319L396.656 207.252C402.612 207.774 406.898 201.653 404.372 196.235L390.163 165.757C387.637 160.339 380.193 159.687 376.764 164.584ZM357.139 191.894C353.53 197.048 356.854 204.177 363.122 204.726L396.621 207.659C402.889 208.208 407.402 201.765 404.743 196.062L390.534 165.585C387.875 159.881 380.039 159.195 376.429 164.35L357.139 191.894Z" fill="#26A0FB"/>
<path fill-rule="evenodd" clip-rule="evenodd" d="M160.288 141.206L126.668 141.841C120.691 141.954 117.077 148.495 120.164 153.614L137.524 182.413C140.61 187.533 148.081 187.392 150.972 182.159L167.233 152.725C170.123 147.493 166.265 141.093 160.288 141.206ZM126.66 141.432C120.368 141.551 116.565 148.436 119.814 153.825L137.174 182.624C140.423 188.013 148.287 187.865 151.33 182.357L167.59 152.923C170.633 147.415 166.572 140.678 160.281 140.797L126.66 141.432Z" fill="#26A0FB"/>
<path fill-rule="evenodd" clip-rule="evenodd" d="M160.119 242.892L132.56 223.623C127.661 220.198 120.891 223.36 120.374 229.316L117.466 262.817C116.949 268.772 123.073 273.054 128.489 270.524L158.955 256.292C164.372 253.762 165.018 246.318 160.119 242.892ZM132.794 223.288C127.637 219.682 120.511 223.011 119.966 229.281L117.058 262.781C116.514 269.05 122.961 273.558 128.662 270.894L159.128 256.663C164.83 253.999 165.51 246.163 160.353 242.557L132.794 223.288Z" fill="#26A0FB"/>
<path fill-rule="evenodd" clip-rule="evenodd" d="M151.549 28.0607L123.704 46.9142C118.754 50.2659 119.289 57.7194 124.667 60.3304L154.916 75.0174C160.294 77.6284 166.482 73.4387 166.054 67.476L163.648 33.9355C163.221 27.9727 156.499 24.7089 151.549 28.0607ZM123.475 46.5757C118.265 50.1039 118.827 57.9496 124.488 60.6981L154.738 75.3851C160.399 78.1335 166.912 73.7233 166.462 67.4467L164.056 33.9062C163.606 27.6296 156.53 24.1941 151.319 27.7222L123.475 46.5757Z" fill="#26A0FB"/>
<path fill-rule="evenodd" clip-rule="evenodd" d="M45.5137 52.8479L63.4939 81.2638C66.6904 86.3155 74.1569 86.0126 76.9335 80.7185L92.5524 50.9392C95.329 45.6451 91.3334 39.3305 85.3603 39.5728L51.7612 40.9362C45.7881 41.1786 42.3172 47.7962 45.5137 52.8479ZM63.1486 81.4824C66.5133 86.8 74.3727 86.4811 77.2955 80.9083L92.9143 51.129C95.8371 45.5563 91.6312 38.9093 85.3437 39.1644L51.7447 40.5278C45.4571 40.7829 41.8036 47.7488 45.1683 53.0664L63.1486 81.4824Z" fill="#26A0FB"/>
<path fill-rule="evenodd" clip-rule="evenodd" d="M405.525 128.246L426.767 102.179C430.543 97.5444 427.887 90.5599 421.985 89.6066L388.789 84.2441C382.887 83.2908 378.167 89.0836 380.292 94.6711L392.246 126.101C394.371 131.689 401.748 132.88 405.525 128.246ZM427.084 102.437C431.059 97.5587 428.263 90.2066 422.05 89.2031L388.854 83.8406C382.642 82.8371 377.673 88.9348 379.91 94.8164L391.864 126.247C394.101 132.128 401.866 133.383 405.842 128.504L427.084 102.437Z" fill="#26A0FB"/>
<path fill-rule="evenodd" clip-rule="evenodd" d="M405.319 42.276L383.093 17.0415C379.142 12.5554 371.816 14.0288 369.907 19.6937L359.166 51.5588C357.256 57.2237 362.195 62.8314 368.056 61.6526L401.022 55.022C406.883 53.8433 409.27 46.7621 405.319 42.276ZM383.4 16.7714C379.241 12.0491 371.529 13.6001 369.519 19.5632L358.778 51.4283C356.768 57.3913 361.967 63.2941 368.136 62.0533L401.103 55.4227C407.272 54.1819 409.785 46.7281 405.625 42.0059L383.4 16.7714Z" fill="#26A0FB"/>
<path fill-rule="evenodd" clip-rule="evenodd" d="M203.972 213.173L203.972 246.8C203.972 252.778 210.443 256.514 215.62 253.525L244.742 236.712C249.919 233.723 249.919 226.25 244.742 223.261L215.62 206.448C210.443 203.459 203.972 207.195 203.972 213.173ZM203.563 246.8C203.563 253.092 210.375 257.025 215.825 253.879L244.946 237.066C250.396 233.919 250.396 226.053 244.946 222.907L215.825 206.094C210.375 202.947 203.563 206.88 203.563 213.173L203.563 246.8Z" fill="#26A0FB"/>
<path fill-rule="evenodd" clip-rule="evenodd" d="M3.40759 238.812L24.7456 264.802C28.5391 269.422 35.9116 268.203 38.0162 262.608L49.8545 231.134C51.9591 225.539 47.2173 219.763 41.3193 220.738L8.14292 226.223C2.2449 227.198 -0.385842 234.192 3.40759 238.812ZM24.4297 265.061C28.4228 269.925 36.1834 268.642 38.3987 262.752L50.2371 231.278C52.4524 225.388 47.4611 219.309 41.2526 220.335L8.07626 225.82C1.86782 226.846 -0.901391 234.208 3.0917 239.072L24.4297 265.061Z" fill="#26A0FB"/>
<path fill-rule="evenodd" clip-rule="evenodd" d="M244.144 175.578L269.192 198.013C273.645 202.002 280.746 199.674 281.974 193.823L288.879 160.913C290.107 155.063 284.54 150.077 278.86 151.939L246.906 162.414C241.226 164.276 239.691 171.589 244.144 175.578ZM268.919 198.318C273.607 202.516 281.081 200.066 282.374 193.907L289.279 160.997C290.571 154.839 284.712 149.591 278.732 151.551L246.779 162.026C240.799 163.986 239.184 171.684 243.871 175.882L268.919 198.318Z" fill="#26A0FB"/>
<path fill-rule="evenodd" clip-rule="evenodd" d="M326.83 250.002L316.59 282.032C314.77 287.726 319.796 293.256 325.637 291.985L358.496 284.838C364.337 283.568 366.613 276.45 362.592 272.027L339.974 247.144C335.953 242.72 328.651 244.308 326.83 250.002ZM316.201 281.907C314.285 287.901 319.575 293.722 325.724 292.384L358.583 285.238C364.732 283.9 367.127 276.408 362.894 271.752L340.276 246.869C336.043 242.212 328.357 243.884 326.441 249.878L316.201 281.907Z" fill="#26A0FB"/>
<path fill-rule="evenodd" clip-rule="evenodd" d="M465.23 236.23L432.276 229.536C426.418 228.346 421.468 233.944 423.367 239.613L434.047 271.499C435.945 277.167 443.268 278.655 447.228 274.176L469.502 248.984C473.462 244.506 471.089 237.42 465.23 236.23ZM432.358 229.136C426.191 227.883 420.981 233.776 422.979 239.743L433.659 271.628C435.658 277.595 443.366 279.161 447.534 274.447L469.808 249.255C473.976 244.541 471.478 237.082 465.311 235.829L432.358 229.136Z" fill="#26A0FB"/>
</g>
<defs>
<clipPath id="clip0_591_634">
<rect width="491" height="272" fill="white"/>
</clipPath>
</defs>
</svg>
