<svg width="136" height="101" viewBox="0 0 136 101" fill="none" xmlns="http://www.w3.org/2000/svg">
<path fill-rule="evenodd" clip-rule="evenodd" d="M3.60603 0.813881C2.50146 0.813881 1.60603 1.7093 1.60603 2.81388L1.60603 97.6146C1.60603 98.7192 2.50146 99.6146 3.60603 99.6146L132.492 99.6146C133.596 99.6146 134.492 98.7192 134.492 97.6146L134.492 2.81388C134.492 1.70931 133.596 0.813876 132.492 0.813876L3.60603 0.813881ZM0.980469 98.1758C0.980469 99.2804 1.8759 100.176 2.98047 100.176L133.117 100.176C134.222 100.176 135.117 99.2803 135.117 98.1758L135.117 2.2527C135.117 1.14813 134.222 0.252696 133.117 0.252696L2.98046 0.252701C1.87589 0.252701 0.980464 1.14814 0.980464 2.25271L0.980469 98.1758Z" fill="#FAFAFA"/>
<rect x="71.0332" y="7.55469" width="9.72048" height="2.98754" stroke="#FAFAFA"/>
<line x1="54.0605" y1="28.4297" x2="47.7851" y2="28.4297" stroke="#FAFAFA"/>
<line x1="54.0605" y1="24.209" x2="47.7851" y2="24.209" stroke="#FAFAFA"/>
<line x1="59.5508" y1="26.084" x2="42.5549" y2="26.084" stroke="#FAFAFA"/>
<line x1="38.1094" y1="29.7754" x2="63.4724" y2="29.7754" stroke="#FAFAFA"/>
<line x1="38.1094" y1="21.5664" x2="63.4724" y2="21.5664" stroke="#FAFAFA"/>
<line x1="48.0469" y1="32.1211" x2="54.3223" y2="32.1211" stroke="#FAFAFA"/>
<line x1="48.0469" y1="36.3438" x2="54.3223" y2="36.3438" stroke="#FAFAFA"/>
<line x1="0.980469" y1="75.9844" x2="97.2033" y2="75.9844" stroke="#FAFAFA"/>
<line x1="97.7031" y1="0.486328" x2="97.7031" y2="100.175" stroke="#FAFAFA"/>
<line x1="97.2031" y1="21.8008" x2="135.117" y2="21.8008" stroke="#FAFAFA"/>
<g style="mix-blend-mode:screen">
<rect x="42.0078" y="71.3555" width="17.8262" height="1.58017" stroke="#FAFAFA"/>
</g>
<g style="mix-blend-mode:screen">
<rect x="29.9805" y="2.16016" width="39.0057" height="5.33315" stroke="#FAFAFA"/>
</g>
<path fill-rule="evenodd" clip-rule="evenodd" d="M97.2033 38.7191H0.980469V38.1582H97.2033V38.7191Z" fill="#FAFAFA"/>
<line x1="42.5547" y1="34.4668" x2="59.5506" y2="34.4668" stroke="#FAFAFA"/>
<line x1="47.7852" y1="48.7754" x2="54.0606" y2="48.7754" stroke="#FAFAFA"/>
<line x1="47.7852" y1="52.998" x2="54.0606" y2="52.998" stroke="#FAFAFA"/>
<line x1="42.293" y1="51.1211" x2="59.2888" y2="51.1211" stroke="#FAFAFA"/>
<line x1="63.7324" y1="47.4297" x2="38.3693" y2="47.4297" stroke="#FAFAFA"/>
<line x1="63.7324" y1="55.6387" x2="38.3693" y2="55.6387" stroke="#FAFAFA"/>
<line x1="53.7988" y1="45.084" x2="47.5234" y2="45.084" stroke="#FAFAFA"/>
<line x1="53.7988" y1="40.8613" x2="47.5234" y2="40.8613" stroke="#FAFAFA"/>
<line x1="59.291" y1="42.7383" x2="42.2951" y2="42.7383" stroke="#FAFAFA"/>
<rect x="18.2148" y="7.55469" width="9.72048" height="2.98754" stroke="#FAFAFA"/>
<rect x="18.2148" y="12.5605" width="9.72048" height="55.1175" stroke="#FAFAFA"/>
<rect x="71.0332" y="12.5605" width="9.72048" height="55.1175" stroke="#FAFAFA"/>
<line x1="52.6973" y1="24.5332" x2="52.6973" y2="42.5606" stroke="#FB007B"/>
<line x1="52.6973" y1="24.5332" x2="52.6973" y2="42.5606" stroke="#FB007B"/>
<line x1="43.1836" y1="33.0469" x2="61.211" y2="33.0469" stroke="#FB007B"/>
<line x1="43.1836" y1="33.0469" x2="61.211" y2="33.0469" stroke="#FB007B"/>
</svg>
