<svg width="118" height="104" viewBox="0 0 118 104" fill="none" xmlns="http://www.w3.org/2000/svg">
<path d="M117.975 51.9264C117.975 44.262 108.255 36.9977 93.3508 32.4954C96.7926 17.4993 95.2645 5.56399 88.5275 1.74143C86.895 0.838674 85.0474 0.384265 83.1768 0.425469V5.67968C84.2753 5.67968 85.1589 5.8966 85.901 6.29669C89.1475 8.13807 90.5583 15.1373 89.4599 24.1466C89.1963 26.3639 88.7667 28.697 88.2394 31.0783C83.2483 29.8907 78.1827 29.0324 73.0761 28.509C70.0339 24.3649 66.715 20.4259 63.1413 16.7184C70.928 9.57455 78.2363 5.6604 83.2061 5.6604V0.401367C76.635 0.401367 68.0379 5.02411 59.3432 13.0404C50.6533 5.07714 42.0513 0.497775 35.4851 0.497775V5.75199C40.4305 5.75199 47.7632 9.64685 55.5499 16.7425C52.2058 20.2131 48.8616 24.1466 45.6835 28.509C40.5664 29.0266 35.4917 29.8931 30.4957 31.1024C29.9677 28.8454 29.5523 26.5642 29.2508 24.2671C28.128 15.253 29.5145 8.25376 32.7414 6.3931C33.4542 5.9689 34.3866 5.77609 35.4851 5.77609V0.521877C33.4835 0.521877 31.6625 0.94607 30.0905 1.83784C23.3778 5.6604 21.8742 17.5667 25.3355 32.5196C10.4797 37.0507 0.808594 44.2861 0.808594 51.9264C0.808594 59.5908 10.5286 66.8551 25.4331 71.3525C21.9914 86.3535 23.5194 98.2888 30.2565 102.107C31.809 103.003 33.6251 103.427 35.6267 103.427C42.1978 103.427 50.7949 98.8046 59.4896 90.7883C68.1795 98.7564 76.7766 103.331 83.3477 103.331C85.2326 103.37 87.0943 102.914 88.7423 102.01C95.4549 98.1924 96.9586 86.2861 93.4973 71.3332C108.304 66.831 117.975 59.5667 117.975 51.9264ZM86.8773 36.1975C85.9497 39.3493 84.8745 42.457 83.6553 45.5105C81.6593 41.6771 79.4678 37.9462 77.089 34.332C80.482 34.8285 83.7529 35.4407 86.8822 36.1975H86.8773ZM75.9418 61.3117C74.1537 64.3941 72.2333 67.4 70.186 70.321C63.0205 70.9446 55.8137 70.9526 48.6468 70.3451C44.5359 64.547 40.9408 58.4087 37.9016 51.9987C40.9362 45.5736 44.516 39.4137 48.6029 33.5849C55.7666 32.96 62.9717 32.9503 70.1372 33.5559C72.1192 36.3614 74.0574 39.3597 75.9174 42.5218C77.7335 45.6069 79.3836 48.7401 80.8872 51.9023C79.3669 55.1028 77.7171 58.2418 75.9418 61.3117ZM83.6553 58.2459C84.9441 61.4033 86.0474 64.5654 86.9506 67.6312C83.8261 68.388 80.5259 69.0243 77.1135 69.516C79.4824 65.8689 81.6657 62.1076 83.6553 58.2459ZM59.4408 83.4083C57.2195 81.1427 54.9982 78.6217 52.8013 75.8596C54.9494 75.956 57.1463 76.0283 59.3676 76.0283C61.6133 76.0283 63.8346 75.9801 66.007 75.8596C63.859 78.6217 61.6377 81.1427 59.4408 83.4083ZM41.6705 69.516C38.3788 69.045 35.1109 68.4241 31.8773 67.6553C32.7609 64.6136 33.8594 61.4756 35.0994 58.3423C36.0807 60.2223 37.1108 62.1119 38.2336 64.0014C39.3565 65.8862 40.4988 67.7276 41.6705 69.516ZM59.3187 20.4445C61.54 22.7101 63.7613 25.2311 65.9582 27.9932C63.8102 27.8968 61.6133 27.8245 59.392 27.8245C57.1463 27.8245 54.925 27.8727 52.7525 27.9932C54.9006 25.2311 57.1219 22.7101 59.3187 20.4445ZM41.6461 34.3368C39.2777 37.9759 37.0944 41.7292 35.1043 45.5828C33.8507 42.5096 32.7509 39.3774 31.809 36.1975C34.9334 35.4648 38.2336 34.8285 41.6461 34.3368ZM20.0337 63.8568C11.5782 60.2994 6.11039 55.6284 6.11039 51.9264C6.11039 48.2243 11.5782 43.5293 20.0337 39.996C22.0841 39.1235 24.3298 38.3426 26.6488 37.6147C28.0108 42.2326 29.8025 47.0434 32.0189 51.9746C29.9263 56.6127 28.1566 61.3863 26.722 66.2622C24.4541 65.5688 22.222 64.7661 20.0337 63.8568ZM32.883 97.5513C29.6365 95.7195 28.2256 88.7107 29.3241 79.7062C29.5877 77.4889 30.0173 75.151 30.5445 72.7697C35.2215 73.9025 40.3328 74.775 45.7079 75.3438C48.7502 79.4878 52.0692 83.4268 55.6426 87.1344C47.8559 94.2782 40.5477 98.1924 35.5778 98.1924C34.6402 98.2025 33.7146 97.9839 32.883 97.5561V97.5513ZM89.5331 79.5857C90.656 88.595 89.2695 95.599 86.0425 97.4597C85.3298 97.8839 84.3973 98.0719 83.2989 98.0719C78.3535 98.0719 71.0208 94.1818 63.2341 87.0814C66.7927 83.3893 70.0893 79.4594 73.1005 75.3197C78.2176 74.8021 83.2923 73.9356 88.2882 72.7263C88.8399 75.1076 89.2646 77.3925 89.5331 79.5857ZM98.7258 63.8568C96.6754 64.7293 94.4297 65.5102 92.1108 66.2381C90.651 61.3373 88.8568 56.5397 86.7407 51.8782C88.9375 46.9759 90.6999 42.1892 92.0376 37.5906C94.3127 38.2863 96.5528 39.089 98.7503 39.996C107.206 43.5534 112.674 48.2243 112.674 51.9264C112.649 55.6284 107.181 60.3235 98.7258 63.8568Z" fill="#3EB1FF"/>
<path d="M58.3802 63.025C61.3269 63.025 64.1529 61.8544 66.2366 59.7708C68.3202 57.6871 69.4908 54.8611 69.4908 51.9144C69.4908 48.9676 68.3202 46.1416 66.2366 44.0579C64.1529 41.9743 61.3269 40.8037 58.3802 40.8037C55.4334 40.8037 52.6074 41.9743 50.5238 44.0579C48.4401 46.1416 47.2695 48.9676 47.2695 51.9144C47.2695 54.8611 48.4401 57.6871 50.5238 59.7708C52.6074 61.8544 55.4334 63.025 58.3802 63.025Z" fill="#3EB1FF"/>
</svg>
