<svg width="79" height="79" viewBox="0 0 79 79" fill="none" xmlns="http://www.w3.org/2000/svg">
<path d="M24.6875 0C25.3423 0 25.9702 0.2601 26.4332 0.72308C26.8961 1.18606 27.1562 1.814 27.1562 2.46875V9.875H32.0938V2.46875C32.0938 1.814 32.3539 1.18606 32.8168 0.72308C33.2798 0.2601 33.9077 0 34.5625 0C35.2173 0 35.8452 0.2601 36.3082 0.72308C36.7711 1.18606 37.0312 1.814 37.0312 2.46875V9.875H41.9688V2.46875C41.9688 1.814 42.2288 1.18606 42.6918 0.72308C43.1548 0.2601 43.7827 0 44.4375 0C45.0923 0 45.7202 0.2601 46.1832 0.72308C46.6462 1.18606 46.9062 1.814 46.9062 2.46875V9.875H51.8438V2.46875C51.8438 1.814 52.1038 1.18606 52.5668 0.72308C53.0298 0.2601 53.6577 0 54.3125 0C54.9673 0 55.5952 0.2601 56.0582 0.72308C56.5212 1.18606 56.7812 1.814 56.7812 2.46875V9.875C60.055 9.875 63.1947 11.1755 65.5096 13.4904C67.8245 15.8053 69.125 18.945 69.125 22.2188H76.5312C77.186 22.2188 77.8139 22.4789 78.2769 22.9418C78.7399 23.4048 79 24.0327 79 24.6875C79 25.3423 78.7399 25.9702 78.2769 26.4332C77.8139 26.8961 77.186 27.1562 76.5312 27.1562H69.125V32.0938H76.5312C77.186 32.0938 77.8139 32.3539 78.2769 32.8168C78.7399 33.2798 79 33.9077 79 34.5625C79 35.2173 78.7399 35.8452 78.2769 36.3082C77.8139 36.7711 77.186 37.0312 76.5312 37.0312H69.125V41.9688H76.5312C77.186 41.9688 77.8139 42.2288 78.2769 42.6918C78.7399 43.1548 79 43.7827 79 44.4375C79 45.0923 78.7399 45.7202 78.2769 46.1832C77.8139 46.6462 77.186 46.9062 76.5312 46.9062H69.125V51.8438H76.5312C77.186 51.8438 77.8139 52.1038 78.2769 52.5668C78.7399 53.0298 79 53.6577 79 54.3125C79 54.9673 78.7399 55.5952 78.2769 56.0582C77.8139 56.5212 77.186 56.7812 76.5312 56.7812H69.125C69.125 60.055 67.8245 63.1947 65.5096 65.5096C63.1947 67.8245 60.055 69.125 56.7812 69.125V76.5312C56.7812 77.186 56.5212 77.8139 56.0582 78.2769C55.5952 78.7399 54.9673 79 54.3125 79C53.6577 79 53.0298 78.7399 52.5668 78.2769C52.1038 77.8139 51.8438 77.186 51.8438 76.5312V69.125H46.9062V76.5312C46.9062 77.186 46.6462 77.8139 46.1832 78.2769C45.7202 78.7399 45.0923 79 44.4375 79C43.7827 79 43.1548 78.7399 42.6918 78.2769C42.2288 77.8139 41.9688 77.186 41.9688 76.5312V69.125H37.0312V76.5312C37.0312 77.186 36.7711 77.8139 36.3082 78.2769C35.8452 78.7399 35.2173 79 34.5625 79C33.9077 79 33.2798 78.7399 32.8168 78.2769C32.3539 77.8139 32.0938 77.186 32.0938 76.5312V69.125H27.1562V76.5312C27.1562 77.186 26.8961 77.8139 26.4332 78.2769C25.9702 78.7399 25.3423 79 24.6875 79C24.0327 79 23.4048 78.7399 22.9418 78.2769C22.4789 77.8139 22.2188 77.186 22.2188 76.5312V69.125C18.945 69.125 15.8053 67.8245 13.4904 65.5096C11.1755 63.1947 9.875 60.055 9.875 56.7812H2.46875C1.814 56.7812 1.18606 56.5212 0.72308 56.0582C0.2601 55.5952 0 54.9673 0 54.3125C0 53.6577 0.2601 53.0298 0.72308 52.5668C1.18606 52.1038 1.814 51.8438 2.46875 51.8438H9.875V46.9062H2.46875C1.814 46.9062 1.18606 46.6462 0.72308 46.1832C0.2601 45.7202 0 45.0923 0 44.4375C0 43.7827 0.2601 43.1548 0.72308 42.6918C1.18606 42.2288 1.814 41.9688 2.46875 41.9688H9.875V37.0312H2.46875C1.814 37.0312 1.18606 36.7711 0.72308 36.3082C0.2601 35.8452 0 35.2173 0 34.5625C0 33.9077 0.2601 33.2798 0.72308 32.8168C1.18606 32.3539 1.814 32.0938 2.46875 32.0938H9.875V27.1562H2.46875C1.814 27.1562 1.18606 26.8961 0.72308 26.4332C0.2601 25.9702 0 25.3423 0 24.6875C0 24.0327 0.2601 23.4048 0.72308 22.9418C1.18606 22.4789 1.814 22.2188 2.46875 22.2188H9.875C9.875 18.945 11.1755 15.8053 13.4904 13.4904C15.8053 11.1755 18.945 9.875 22.2188 9.875V2.46875C22.2188 1.814 22.4789 1.18606 22.9418 0.72308C23.4048 0.2601 24.0327 0 24.6875 0V0ZM22.2188 14.8125C20.2545 14.8125 18.3707 15.5928 16.9817 16.9817C15.5928 18.3707 14.8125 20.2545 14.8125 22.2188V56.7812C14.8125 58.7455 15.5928 60.6293 16.9817 62.0183C18.3707 63.4072 20.2545 64.1875 22.2188 64.1875H56.7812C58.7455 64.1875 60.6293 63.4072 62.0183 62.0183C63.4072 60.6293 64.1875 58.7455 64.1875 56.7812V22.2188C64.1875 20.2545 63.4072 18.3707 62.0183 16.9817C60.6293 15.5928 58.7455 14.8125 56.7812 14.8125H22.2188ZM24.6875 32.0938C24.6875 30.1295 25.4678 28.2457 26.8567 26.8567C28.2457 25.4678 30.1295 24.6875 32.0938 24.6875H46.9062C48.8705 24.6875 50.7543 25.4678 52.1433 26.8567C53.5322 28.2457 54.3125 30.1295 54.3125 32.0938V46.9062C54.3125 48.8705 53.5322 50.7543 52.1433 52.1433C50.7543 53.5322 48.8705 54.3125 46.9062 54.3125H32.0938C30.1295 54.3125 28.2457 53.5322 26.8567 52.1433C25.4678 50.7543 24.6875 48.8705 24.6875 46.9062V32.0938ZM32.0938 29.625C31.439 29.625 30.8111 29.8851 30.3481 30.3481C29.8851 30.8111 29.625 31.439 29.625 32.0938V46.9062C29.625 47.561 29.8851 48.1889 30.3481 48.6519C30.8111 49.1149 31.439 49.375 32.0938 49.375H46.9062C47.561 49.375 48.1889 49.1149 48.6519 48.6519C49.1149 48.1889 49.375 47.561 49.375 46.9062V32.0938C49.375 31.439 49.1149 30.8111 48.6519 30.3481C48.1889 29.8851 47.561 29.625 46.9062 29.625H32.0938Z" fill="#3EB1FF"/>
</svg>
