<svg width="76" height="74" viewBox="0 0 76 74" fill="none" xmlns="http://www.w3.org/2000/svg">
<path d="M46.6932 0V0.397579C46.6932 1.51141 46.4679 2.61433 46.0301 3.64338C45.5924 4.67242 44.9507 5.60743 44.1419 6.39503C43.333 7.18263 42.3727 7.80739 41.3158 8.23363C40.259 8.65987 39.1262 8.87926 37.9823 8.87926C36.8384 8.87926 35.7056 8.65987 34.6488 8.23363C33.5919 7.80739 32.6316 7.18263 31.8228 6.39503C31.0139 5.60743 30.3722 4.67242 29.9345 3.64338C29.4967 2.61433 29.2714 1.51141 29.2714 0.397579V0H0V74H76V0H46.6932Z" fill="#0761E2"/>
<path d="M18 40H22.9813L26.3874 58.3633H26.4493L30.5339 40H35.1948L38.8863 58.6009H38.959L42.8363 40H47.7233L41.3742 67H36.428L32.7661 48.6231H32.6691L28.7487 67H23.7136L18 40ZM53.3373 40H61.1915L69 67H63.8545L62.1582 60.9909H53.2108L51.9022 67H46.8967L53.3373 40ZM56.3261 46.6564L54.1532 56.5633H60.9169L58.429 46.6428L56.3261 46.6564Z" fill="white"/>
</svg>
