<svg width="153" height="153" viewBox="0 0 153 153" fill="none" xmlns="http://www.w3.org/2000/svg">
<path d="M70.125 55.7812C70.125 54.5132 69.6213 53.2971 68.7246 52.4004C67.8279 51.5037 66.6118 51 65.3438 51C64.0757 51 62.8596 51.5037 61.9629 52.4004C61.0662 53.2971 60.5625 54.5132 60.5625 55.7812V97.2188C60.5625 98.4868 61.0662 99.7029 61.9629 100.6C62.8596 101.496 64.0757 102 65.3438 102C66.6118 102 67.8279 101.496 68.7246 100.6C69.6213 99.7029 70.125 98.4868 70.125 97.2188V55.7812ZM108.375 55.7812C108.375 54.5132 107.871 53.2971 106.975 52.4004C106.078 51.5037 104.862 51 103.594 51C102.326 51 101.11 51.5037 100.213 52.4004C99.3162 53.2971 98.8125 54.5132 98.8125 55.7812V97.2188C98.8125 98.4868 99.3162 99.7029 100.213 100.6C101.11 101.496 102.326 102 103.594 102C104.862 102 106.078 101.496 106.975 100.6C107.871 99.7029 108.375 98.4868 108.375 97.2188V55.7812ZM89.25 65.3438C89.25 64.0757 88.7463 62.8596 87.8496 61.9629C86.9529 61.0662 85.7368 60.5625 84.4688 60.5625C83.2007 60.5625 81.9846 61.0662 81.0879 61.9629C80.1912 62.8596 79.6875 64.0757 79.6875 65.3438V87.6562C79.6875 88.9243 80.1912 90.1404 81.0879 91.0371C81.9846 91.9338 83.2007 92.4375 84.4688 92.4375C85.7368 92.4375 86.9529 91.9338 87.8496 91.0371C88.7463 90.1404 89.25 88.9243 89.25 87.6562V65.3438ZM51 68.5312C51 67.2632 50.4963 66.0471 49.5996 65.1504C48.7029 64.2537 47.4868 63.75 46.2188 63.75C44.9507 63.75 43.7346 64.2537 42.8379 65.1504C41.9412 66.0471 41.4375 67.2632 41.4375 68.5312V84.4688C41.4375 85.7368 41.9412 86.9529 42.8379 87.8496C43.7346 88.7463 44.9507 89.25 46.2188 89.25C47.4868 89.25 48.7029 88.7463 49.5996 87.8496C50.4963 86.9529 51 85.7368 51 84.4688V68.5312ZM76.5 12.75C41.2909 12.75 12.75 41.2909 12.75 76.5C12.75 111.709 41.2909 140.25 76.5 140.25C111.709 140.25 140.25 111.709 140.25 76.5C140.25 41.2909 111.709 12.75 76.5 12.75ZM22.3125 76.5C22.3125 62.1286 28.0215 48.3458 38.1837 38.1837C48.3458 28.0215 62.1286 22.3125 76.5 22.3125C90.8714 22.3125 104.654 28.0215 114.816 38.1837C124.978 48.3458 130.687 62.1286 130.688 76.5C130.688 90.8714 124.978 104.654 114.816 114.816C104.654 124.978 90.8714 130.688 76.5 130.688C62.1286 130.688 48.3458 124.978 38.1837 114.816C28.0215 104.654 22.3125 90.8714 22.3125 76.5V76.5Z" fill="#3EB1FF"/>
</svg>
